<svg width="18" height="18" viewBox="0 0 18 18" fill="none" xmlns="http://www.w3.org/2000/svg">
<path fill-rule="evenodd" clip-rule="evenodd" d="M16 6H2V5C2 4.44772 2.44772 4 3 4H15C15.5523 4 16 4.44772 16 5V6ZM2 15V8H16V15C16 15.5523 15.5523 16 15 16H3C2.44772 16 2 15.5523 2 15ZM15 2H14V1C14 0.447715 13.5523 0 13 0C12.4477 0 12 0.447715 12 1V2H6V1C6 0.447715 5.55228 0 5 0C4.44772 0 4 0.447715 4 1V2H3C1.34315 2 0 3.34315 0 5V15C0 16.6569 1.34315 18 3 18H15C16.6569 18 18 16.6569 18 15V5C18 3.34315 16.6569 2 15 2ZM5 13C5.55228 13 6 12.5523 6 12C6 11.4477 5.55228 11 5 11C4.44772 11 4 11.4477 4 12C4 12.5523 4.44772 13 5 13ZM10 12C10 12.5523 9.55229 13 9 13C8.44771 13 8 12.5523 8 12C8 11.4477 8.44771 11 9 11C9.55229 11 10 11.4477 10 12ZM13 13C13.5523 13 14 12.5523 14 12C14 11.4477 13.5523 11 13 11C12.4477 11 12 11.4477 12 12C12 12.5523 12.4477 13 13 13Z" fill="#1B1B1B"/>
</svg>
