<svg width="19" height="16" viewBox="0 0 19 16" fill="none" xmlns="http://www.w3.org/2000/svg">
<path fill-rule="evenodd" clip-rule="evenodd" d="M3.5 0H15.5C17.1569 0 18.5 1.34315 18.5 3V13C18.5 14.6569 17.1569 16 15.5 16H3.5C1.84315 16 0.5 14.6569 0.5 13V3C0.5 1.34315 1.84315 0 3.5 0ZM3.91421 2L9.5 7.58579L15.0858 2H3.91421ZM16.5 3.41421L10.2071 9.70711C9.81658 10.0976 9.18342 10.0976 8.79289 9.70711L2.5 3.41421V13C2.5 13.5523 2.94772 14 3.5 14H15.5C16.0523 14 16.5 13.5523 16.5 13V3.41421Z" fill="#6D6D6D"/>
</svg>
