<svg width="16" height="17" viewBox="0 0 16 17" fill="none" xmlns="http://www.w3.org/2000/svg">
<path fill-rule="evenodd" clip-rule="evenodd" d="M8.00001 9.16667C9.10458 9.16667 10 8.27124 10 7.16667C10 6.0621 9.10458 5.16667 8.00001 5.16667C6.89544 5.16667 6.00001 6.0621 6.00001 7.16667C6.00001 8.27124 6.89544 9.16667 8.00001 9.16667ZM8.47141 14.3047C8.21107 14.5651 7.78896 14.5651 7.52861 14.3047C4.74807 11.5242 3.33334 9.16632 3.33334 7.16667C3.33334 4.58934 5.42268 2.5 8.00001 2.5C10.5773 2.5 12.6667 4.58934 12.6667 7.16667C12.6667 9.16632 11.252 11.5242 8.47141 14.3047Z" fill="#FF7D00"/>
</svg>
