<svg width="214" height="94" viewBox="0 0 214 94" fill="none" xmlns="http://www.w3.org/2000/svg">
<path d="M81.2956 47.6281L87.5134 37.9156H92.8337V38.125L83.4911 51.7193V61.4318H79.0842V51.7193L70.0941 38.125V37.9156H75.3343L81.2956 47.6281Z" fill="#171717"/>
<path d="M108.683 57.0023H96.4555L94.4523 61.4318H89.6768L100.173 37.9156H104.981L115.477 61.4318H110.67L108.683 57.0023ZM102.577 42.8605L98.2342 52.8629H106.92L102.577 42.8605Z" fill="#171717"/>
<path d="M131.535 43.6014C130.733 42.2646 128.522 40.976 125.99 40.976C122.721 40.976 121.15 42.3451 121.15 44.1007C121.15 46.1463 123.554 46.7262 126.358 47.0483C131.23 47.6604 135.781 48.9328 135.781 54.538C135.781 59.7728 131.166 62.0278 125.958 62.0278C121.182 62.0278 117.496 60.5459 115.766 56.2454L119.436 54.3286C120.477 56.9219 123.185 58.0493 126.022 58.0493C128.794 58.0493 131.406 57.0829 131.406 54.5219C131.406 52.2992 129.099 51.3972 125.99 51.0589C121.214 50.4952 116.807 49.2066 116.807 43.9397C116.807 39.1076 121.551 37.1265 125.862 37.0942C129.499 37.0942 133.281 38.1412 135.044 41.7652L131.535 43.6014Z" fill="#171717"/>
<path d="M153.633 43.6014C152.832 42.2646 150.62 40.976 148.089 40.976C144.819 40.976 143.249 42.3451 143.249 44.1007C143.249 46.1463 145.653 46.7262 148.457 47.0483C153.329 47.6604 157.88 48.9328 157.88 54.538C157.88 59.7728 153.265 62.0278 148.056 62.0278C143.281 62.0278 139.595 60.5459 137.864 56.2454L141.534 54.3286C142.576 56.9219 145.284 58.0493 148.121 58.0493C150.893 58.0493 153.505 57.0829 153.505 54.5219C153.505 52.2992 151.197 51.3972 148.089 51.0589C143.313 50.4952 138.906 49.2066 138.906 43.9397C138.906 39.1076 143.65 37.1265 147.96 37.0942C151.598 37.0942 155.38 38.1412 157.143 41.7652L153.633 43.6014Z" fill="#171717"/>
<path d="M161.309 61.4318V37.9156H165.684V61.4318H161.309Z" fill="#171717"/>
<path d="M190.587 61.4319H185.347L178.536 53.5717H174.29V61.4319H169.867V37.8835C173.568 37.8835 177.286 37.9158 180.988 37.9158C186.501 37.948 189.401 41.6365 189.401 45.7115C189.401 48.9329 187.927 52.1865 183.488 53.1046L190.571 61.1258V61.4319H190.587ZM174.274 42.0552V49.5772H180.988C183.793 49.5772 184.994 47.6927 184.994 45.8081C184.994 43.9236 183.76 42.0391 180.988 42.0391H174.274V42.0552Z" fill="#171717"/>
<path d="M46.0082 62.3016C44.598 62.817 43.0436 62.817 41.6173 62.3016L23.3967 55.6333V63.4613L41.6334 70.1295C43.0436 70.645 44.598 70.645 46.0243 70.1295L64.2449 63.4613V55.6172L46.0082 62.3016Z" fill="#171717"/>
<path d="M46.489 24.9496C45.223 23.0329 42.4186 23.0329 41.1526 24.9496L23.3967 51.7193L41.6334 58.3876C43.0436 58.903 44.598 58.903 46.0243 58.3876L64.2609 51.7193L46.489 24.9496Z" fill="url(#paint0_linear_1_15171)"/>
<defs>
<linearGradient id="paint0_linear_1_15171" x1="44.7581" y1="54.7383" x2="34.257" y2="21.2727" gradientUnits="userSpaceOnUse">
<stop stop-color="#FF8500"/>
<stop offset="1" stop-color="#FEB60F"/>
</linearGradient>
</defs>
</svg>
