<svg width="17" height="18" viewBox="0 0 17 18" fill="none" xmlns="http://www.w3.org/2000/svg">
<path fill-rule="evenodd" clip-rule="evenodd" d="M9.91667 2.625H7.08333C6.30093 2.625 5.66667 3.25926 5.66667 4.04167V5.45833H4.95833V15.375H12.0417V5.45833H11.3333V4.04167C11.3333 3.25926 10.6991 2.625 9.91667 2.625ZM9.91667 5.45833V4.04167H7.08333V5.45833H9.91667Z" fill="#5A5A5A"/>
<path d="M4.25 5.45833H3.4C2.69584 5.45833 2.125 6.0926 2.125 6.875V13.9583C2.125 14.7407 2.69584 15.375 3.4 15.375H4.25V5.45833Z" fill="#5A5A5A"/>
<path d="M13.6 15.375H12.75V5.45833H13.6C14.3042 5.45833 14.875 6.0926 14.875 6.875V13.9583C14.875 14.7407 14.3042 15.375 13.6 15.375Z" fill="#5A5A5A"/>
</svg>
