<svg width="16" height="13" viewBox="0 0 16 13" fill="none" xmlns="http://www.w3.org/2000/svg">
<path fill-rule="evenodd" clip-rule="evenodd" d="M0 1.5C0 0.947715 0.447715 0.5 1 0.5H15C15.5523 0.5 16 0.947715 16 1.5C16 2.05228 15.5523 2.5 15 2.5H1C0.447715 2.5 0 2.05228 0 1.5ZM0 6.5C0 5.94772 0.447715 5.5 1 5.5H15C15.5523 5.5 16 5.94772 16 6.5C16 7.05228 15.5523 7.5 15 7.5H1C0.447715 7.5 0 7.05228 0 6.5ZM1 10.5C0.447715 10.5 0 10.9477 0 11.5C0 12.0523 0.447715 12.5 1 12.5H15C15.5523 12.5 16 12.0523 16 11.5C16 10.9477 15.5523 10.5 15 10.5H1Z" fill="#1B1B1B"/>
</svg>
