<svg width="16" height="16" viewBox="0 0 16 16" fill="none" xmlns="http://www.w3.org/2000/svg">
<path d="M3.33333 5.33332C3.33333 6.80608 4.52724 7.99999 6 7.99999C7.47276 7.99999 8.66667 6.80608 8.66667 5.33332C8.66667 3.86056 7.47276 2.66666 6 2.66666C4.52724 2.66666 3.33333 3.86056 3.33333 5.33332Z" fill="#5A5A5A"/>
<path d="M10.3333 8.66666C10.3333 8.66666 11.3333 9.07291 11.3333 9.99999C11.3333 10.9271 11.3333 12.6667 11.3333 12.6667C11.3333 13.0348 11.6318 13.3333 12 13.3333H13.6667C14.219 13.3333 14.6667 12.8856 14.6667 12.3333V10.6667C14.6667 9.56209 13.7712 8.66666 12.6667 8.66666H10.3333Z" fill="#5A5A5A"/>
<path d="M8 8.66666H4C2.89543 8.66666 2 9.56209 2 10.6667V12.6667C2 13.0348 2.29848 13.3333 2.66667 13.3333H9.33333C9.70152 13.3333 10 13.0348 10 12.6667V10.6667C10 9.56209 9.10457 8.66666 8 8.66666Z" fill="#5A5A5A"/>
<path d="M10.6667 7.99999C10.1612 7.99999 9.68859 7.85935 9.28581 7.61508C9.73605 6.96792 10 6.18145 10 5.33332C10 4.4852 9.73605 3.69872 9.28581 3.05157C9.68859 2.80729 10.1612 2.66666 10.6667 2.66666C12.1394 2.66666 13.3333 3.86056 13.3333 5.33332C13.3333 6.80608 12.1394 7.99999 10.6667 7.99999Z" fill="#5A5A5A"/>
</svg>
