<svg width="17" height="16" viewBox="0 0 17 16" fill="none" xmlns="http://www.w3.org/2000/svg">
<path d="M5.02197 11.4573C5.81885 12.2542 6.65999 12.9736 7.54541 13.6155C8.43083 14.2574 9.31624 14.7665 10.2017 15.1428C11.0871 15.5191 11.9255 15.7073 12.7168 15.7073C13.2536 15.7073 13.7544 15.6104 14.2192 15.4167C14.6841 15.2231 15.1047 14.9187 15.481 14.5037C15.7023 14.2602 15.8766 13.9973 16.0039 13.7151C16.1312 13.4384 16.1948 13.1589 16.1948 12.8767C16.1948 12.6664 16.1533 12.4672 16.0703 12.2791C15.9873 12.0854 15.8462 11.9194 15.647 11.781L13.0986 9.97144C12.9049 9.83862 12.7251 9.73901 12.5591 9.67261C12.3931 9.6062 12.2354 9.573 12.0859 9.573C11.8978 9.573 11.7152 9.62557 11.5381 9.73071C11.361 9.83032 11.1784 9.9742 10.9902 10.1624L10.4009 10.7434C10.3179 10.832 10.2127 10.8762 10.0854 10.8762C10.019 10.8762 9.9554 10.8652 9.89453 10.843C9.83919 10.8209 9.79216 10.8015 9.75342 10.7849C9.49333 10.6466 9.1613 10.4086 8.75732 10.071C8.35335 9.72795 7.94661 9.35164 7.53711 8.94214C7.13314 8.53263 6.7596 8.1259 6.4165 7.72192C6.0734 7.31795 5.83545 6.98869 5.70264 6.73413C5.6805 6.68986 5.65837 6.64006 5.63623 6.58472C5.61963 6.52384 5.61133 6.46297 5.61133 6.4021C5.61133 6.28035 5.65283 6.17798 5.73584 6.09497L6.3252 5.48901C6.50781 5.30086 6.65169 5.11825 6.75684 4.94116C6.86198 4.76408 6.91455 4.58146 6.91455 4.39331C6.91455 4.2439 6.87858 4.08618 6.80664 3.92017C6.74023 3.75415 6.63786 3.5743 6.49951 3.38062L4.71484 0.865479C4.57096 0.66626 4.39941 0.52238 4.2002 0.433838C4.00098 0.339762 3.79069 0.292725 3.56934 0.292725C2.99935 0.292725 2.46533 0.533447 1.96729 1.01489C1.56331 1.40226 1.26725 1.83114 1.0791 2.30151C0.896484 2.76636 0.805176 3.2644 0.805176 3.79565C0.805176 4.59253 0.99056 5.43091 1.36133 6.31079C1.7321 7.18514 2.23568 8.06226 2.87207 8.94214C3.50846 9.82202 4.2251 10.6604 5.02197 11.4573Z" fill="#6D6D6D"/>
</svg>
