<svg width="178" height="159" viewBox="0 0 178 159" fill="none" xmlns="http://www.w3.org/2000/svg">
<path d="M159.145 86.1758C159.145 107.497 149.867 126.687 135.115 139.883C122.38 151.293 105.495 158.265 87.0552 158.265C68.615 158.265 51.7307 151.35 38.9955 139.883C24.2433 126.687 14.9656 107.497 14.9656 86.1758C14.9656 46.3565 47.2359 14.0862 87.0552 14.0862C126.874 14.0862 159.145 46.3565 159.145 86.1758Z" fill="#F2F2F2"/>
<path d="M173.378 58.4003C144.277 73.9592 93.8651 53.7902 75.7032 21.2318C57.5412 -11.3266 9.72165 -3.54716 9.72192 37.0788" stroke="#6D6D6D" stroke-width="0.576255" stroke-linecap="round" stroke-linejoin="round" stroke-dasharray="2.31 4.61"/>
<path d="M135.115 45.1944V139.612C122.38 151.263 105.495 158.38 87.0553 158.38C68.6151 158.38 51.7308 151.263 38.9956 139.612V45.1944C38.9956 43.8743 40.0328 42.7838 41.3582 42.7838H132.81C134.078 42.8411 135.115 43.8743 135.115 45.1944Z" fill="white"/>
<path d="M47.9854 139.307H124.166C126.126 139.307 127.739 137.693 127.739 135.734V121.615C127.739 119.656 126.126 118.043 124.166 118.043H47.9854C46.0261 118.043 44.4126 119.656 44.4126 121.615V135.734C44.4126 137.751 46.0261 139.307 47.9854 139.307Z" fill="#F9F9F9"/>
<path d="M63.8902 127.09H83.8863C84.4049 127.09 84.8083 126.687 84.8083 126.168C84.8083 125.649 84.4049 125.246 83.8863 125.246H63.8902C63.3716 125.246 62.9682 125.649 62.9682 126.168C62.9682 126.629 63.3716 127.09 63.8902 127.09Z" fill="#D9D9D9"/>
<path d="M63.8894 131.469H67.9808C68.4994 131.469 68.9028 131.066 68.9028 130.547C68.9028 130.029 68.4994 129.625 67.9808 129.625H63.8894C63.3707 129.625 62.9673 130.029 62.9673 130.547C62.9673 131.066 63.3707 131.469 63.8894 131.469Z" fill="#F2F2F2"/>
<path d="M71.6114 131.469H80.601C81.1196 131.469 81.523 131.066 81.523 130.547C81.523 130.029 81.1196 129.625 80.601 129.625H71.6114C71.0928 129.625 70.6894 130.029 70.6894 130.547C70.6894 131.066 71.0928 131.469 71.6114 131.469Z" fill="#F2F2F2"/>
<path d="M83.9429 131.469H92.9325C93.4511 131.469 93.8545 131.066 93.8545 130.547C93.8545 130.029 93.4511 129.625 92.9325 129.625H83.9429C83.4243 129.625 83.0209 130.029 83.0209 130.547C83.0209 131.066 83.4819 131.469 83.9429 131.469Z" fill="#F2F2F2"/>
<path d="M120.996 138.039C122.524 138.039 123.762 136.8 123.762 135.273C123.762 133.745 122.524 132.507 120.996 132.507C119.469 132.507 118.23 133.745 118.23 135.273C118.23 136.8 119.469 138.039 120.996 138.039Z" fill="url(#paint0_linear_1_15810)"/>
<path d="M47.9854 115.68H124.166C126.126 115.68 127.739 114.067 127.739 112.107V97.989C127.739 96.0297 126.126 94.4162 124.166 94.4162H47.9854C46.0261 94.4162 44.4126 96.0297 44.4126 97.989V112.107C44.4126 114.067 46.0261 115.68 47.9854 115.68Z" fill="#F9F9F9"/>
<path d="M63.8902 103.406H83.8863C84.4049 103.406 84.8083 103.002 84.8083 102.484C84.8083 101.965 84.4049 101.562 83.8863 101.562H63.8902C63.3716 101.562 62.9682 101.965 62.9682 102.484C62.9682 103.002 63.3716 103.406 63.8902 103.406Z" fill="#D9D9D9"/>
<path d="M63.8894 107.843H67.9808C68.4994 107.843 68.9028 107.44 68.9028 106.921C68.9028 106.402 68.4994 105.999 67.9808 105.999H63.8894C63.3707 105.999 62.9673 106.402 62.9673 106.921C62.9673 107.382 63.3707 107.843 63.8894 107.843Z" fill="#F2F2F2"/>
<path d="M71.6114 107.843H80.601C81.1196 107.843 81.523 107.44 81.523 106.921C81.523 106.402 81.1196 105.999 80.601 105.999H71.6114C71.0928 105.999 70.6894 106.402 70.6894 106.921C70.6894 107.382 71.0928 107.843 71.6114 107.843Z" fill="#F2F2F2"/>
<path d="M83.9429 107.843H92.9325C93.4511 107.843 93.8545 107.44 93.8545 106.921C93.8545 106.402 93.4511 105.999 92.9325 105.999H83.9429C83.4243 105.999 83.0209 106.402 83.0209 106.921C83.0209 107.382 83.4819 107.843 83.9429 107.843Z" fill="#F2F2F2"/>
<path d="M120.996 114.355C122.524 114.355 123.762 113.116 123.762 111.589C123.762 110.061 122.524 108.823 120.996 108.823C119.469 108.823 118.23 110.061 118.23 111.589C118.23 113.116 119.469 114.355 120.996 114.355Z" fill="url(#paint1_linear_1_15810)"/>
<path d="M40.3786 38.8076H133.732C134.481 38.8076 135.115 38.1737 135.115 37.4246V7.05591C135.115 6.30678 134.481 5.6729 133.732 5.6729H40.3786C39.6295 5.6729 38.9956 6.30678 38.9956 7.05591V37.4822C38.9956 38.1737 39.6295 38.8076 40.3786 38.8076Z" fill="#6D6D6D"/>
<path d="M46.0829 14.893H73.3974C74.0889 14.893 74.6652 14.3167 74.6652 13.6252C74.6652 12.9337 74.0889 12.3574 73.3974 12.3574H46.0829C45.3914 12.3574 44.8152 12.9337 44.8152 13.6252C44.8152 14.3167 45.3914 14.893 46.0829 14.893Z" fill="#D9D9D9"/>
<path d="M46.0832 22.6148H51.6152C52.3067 22.6148 52.883 22.0385 52.883 21.347C52.883 20.6555 52.3067 20.0793 51.6152 20.0793H46.0832C45.3917 20.0793 44.8154 20.6555 44.8154 21.347C44.8154 22.0962 45.3917 22.6148 46.0832 22.6148Z" fill="#F3F3F3"/>
<path d="M56.5711 22.6148H68.8454C69.5369 22.6148 70.1131 22.0385 70.1131 21.347C70.1131 20.6555 69.5369 20.0793 68.8454 20.0793H56.5711C55.8796 20.0793 55.3034 20.6555 55.3034 21.347C55.3034 22.0962 55.8796 22.6148 56.5711 22.6148Z" fill="#F3F3F3"/>
<path d="M73.5127 22.6148H85.7869C86.4784 22.6148 87.0547 22.0385 87.0547 21.347C87.0547 20.6555 86.4784 20.0793 85.7869 20.0793H73.5127C72.8212 20.0793 72.2449 20.6555 72.2449 21.347C72.2449 22.0962 72.8212 22.6148 73.5127 22.6148Z" fill="#F3F3F3"/>
<path d="M101.461 61.8578C102.441 61.8578 103.19 61.051 103.19 60.129C103.19 59.1494 102.383 58.4003 101.461 58.4003C100.481 58.4003 99.7322 59.207 99.7322 60.129C99.7322 61.1087 100.481 61.8578 101.461 61.8578Z" fill="#777F91"/>
<path d="M75.4724 61.8578C76.4521 61.8578 77.2012 61.051 77.2012 60.129C77.2012 59.1494 76.3944 58.4003 75.4724 58.4003C74.4928 58.4003 73.7437 59.207 73.7437 60.129C73.7437 61.1087 74.4928 61.8578 75.4724 61.8578Z" fill="#777F91"/>
<path d="M161.508 43.9939L170.382 38.3466C171.016 37.9432 171.189 37.1365 170.786 36.5026C170.382 35.8687 169.575 35.6958 168.942 36.0992L160.125 41.7465C159.491 42.1499 159.318 42.9566 159.721 43.5905C160.067 44.2244 160.932 44.3973 161.508 43.9939Z" fill="#F3F3F3"/>
<path d="M157.647 39.9601L161.969 32.4688C162.314 31.8925 162.084 31.1434 161.508 30.7976L161.335 30.6824C160.758 30.3366 160.009 30.5671 159.664 31.1434L155.342 38.6347C154.996 39.211 155.226 39.9601 155.803 40.3059L155.975 40.4211C156.552 40.7669 157.301 40.5364 157.647 39.9601Z" fill="#F3F3F3"/>
<path d="M162.141 50.1598L171.592 49.3531C172.226 49.2954 172.744 48.7192 172.687 48.0853V47.7972C172.629 47.1633 172.053 46.6446 171.419 46.7023L161.968 47.509C161.334 47.5667 160.816 48.1429 160.873 48.7768V49.0649C160.931 49.6988 161.507 50.2174 162.141 50.1598Z" fill="#F3F3F3"/>
<path d="M166.867 78.5692L169.057 74.8236C169.402 74.1897 169.23 73.3829 168.596 72.9795C167.962 72.6338 167.155 72.8067 166.752 73.4405L164.562 77.1862C164.216 77.8201 164.389 78.6268 165.023 79.0302C165.657 79.4336 166.464 79.2031 166.867 78.5692Z" fill="#F3F3F3"/>
<path d="M169.287 75.9184L165.542 73.7287C164.908 73.3829 164.101 73.5558 163.698 74.1897C163.352 74.8235 163.525 75.6303 164.159 76.0337L167.904 78.2234C168.538 78.5692 169.345 78.3963 169.748 77.7625C170.152 77.1286 169.921 76.3218 169.287 75.9184Z" fill="#F3F3F3"/>
<path d="M3.78666 67.6204L5.97643 63.8747C6.32218 63.2408 6.14931 62.4341 5.51542 62.0307C4.88154 61.6849 4.07479 61.8578 3.67141 62.4917L1.48164 66.2374C1.13588 66.8712 1.30876 67.678 1.94264 68.0814C2.57652 68.4847 3.44091 68.2542 3.78666 67.6204Z" fill="#F3F3F3"/>
<path d="M6.26434 65.0272L2.51868 62.8374C1.8848 62.4917 1.07804 62.6646 0.67466 63.2984C0.328907 63.9323 0.501784 64.7391 1.13566 65.1424L4.88132 67.3322C5.51521 67.678 6.32196 67.5051 6.72534 66.8712C7.12872 66.1797 6.89822 65.373 6.26434 65.0272Z" fill="#F3F3F3"/>
<path d="M174.13 60.9956L176.32 57.2499C176.665 56.6161 176.492 55.8093 175.859 55.4059C175.225 55.0602 174.418 55.2331 174.014 55.8669L171.825 59.6126C171.479 60.2465 171.652 61.0532 172.286 61.4566C172.977 61.8024 173.784 61.6295 174.13 60.9956Z" fill="#777F91"/>
<path d="M176.838 58.172L173.093 55.9822C172.459 55.6364 171.652 55.8093 171.248 56.4432C170.903 57.0771 171.076 57.8838 171.71 58.2872L175.455 60.477C176.089 60.8227 176.896 60.6499 177.299 60.016C177.703 59.3821 177.472 58.5753 176.838 58.172Z" fill="#777F91"/>
<path d="M11.912 45.0311L15.2543 39.2686C15.8305 38.2889 15.4848 37.0212 14.5051 36.4449C13.5255 35.8687 12.2577 36.2144 11.6815 37.1941L8.3392 42.9566C7.76294 43.9362 8.1087 45.204 9.08833 45.7803C10.1256 46.3565 11.3357 46.0108 11.912 45.0311Z" fill="#777F91"/>
<path d="M15.7149 40.9974L9.95237 37.6551C8.97273 37.0788 7.70497 37.4246 7.12872 38.4042C6.55246 39.3839 6.89822 40.6516 7.87785 41.2279L13.6404 44.5701C14.62 45.1464 15.8878 44.8006 16.4641 43.821C17.0403 42.8414 16.6946 41.5736 15.7149 40.9974Z" fill="#777F91"/>
<path d="M30.4096 72.9219L31.735 70.6169C31.9655 70.2135 31.8502 69.6948 31.4468 69.4643C31.0435 69.2338 30.5248 69.3491 30.2943 69.7525L28.969 72.0575C28.7384 72.4609 28.8537 72.9795 29.2571 73.21C29.6605 73.4405 30.1791 73.3253 30.4096 72.9219Z" fill="url(#paint2_linear_1_15810)"/>
<path d="M31.9656 71.3084L29.6606 69.983C29.2572 69.7525 28.7385 69.8677 28.508 70.2711C28.2775 70.6745 28.3928 71.1931 28.7962 71.4236L31.1012 72.749C31.5046 72.9795 32.0232 72.8643 32.2537 72.4609C32.4842 72.0575 32.369 71.5389 31.9656 71.3084Z" fill="url(#paint3_linear_1_15810)"/>
<path d="M119.182 13.2029H118.523L117.755 14.3937L117.017 13.2029H116.368V13.2286L117.481 14.8953V16.0862H118.027V14.8953L119.182 13.2286V13.2029Z" fill="#D9D9D9"/>
<path d="M120.094 13.2029L118.793 16.0862H119.385L119.633 15.5431H121.148L121.392 16.0862H121.987L120.687 13.2029H120.094V13.2029ZM119.853 15.0356L120.391 13.8092L120.929 15.0356H119.853Z" fill="#D9D9D9"/>
<path d="M123.337 14.3226C122.99 14.2812 122.692 14.2121 122.692 13.9613C122.692 13.748 122.886 13.5781 123.291 13.5781C123.605 13.5781 123.879 13.7341 123.978 13.9L124.413 13.6769C124.193 13.2325 123.726 13.1042 123.276 13.1042C122.742 13.1081 122.154 13.351 122.154 13.9435C122.154 14.5892 122.7 14.7472 123.291 14.8164C123.677 14.8578 123.962 14.9684 123.962 15.2409C123.962 15.553 123.639 15.6734 123.295 15.6734C122.944 15.6734 122.609 15.5332 122.48 15.2172L122.025 15.4522C122.239 15.9795 122.696 16.1612 123.287 16.1612C123.933 16.1612 124.504 15.8847 124.504 15.2429C124.504 14.5537 123.943 14.3977 123.337 14.3226Z" fill="#D9D9D9"/>
<path d="M126.074 14.3226C125.727 14.2812 125.429 14.2121 125.429 13.9613C125.429 13.748 125.624 13.5781 126.029 13.5781C126.342 13.5781 126.616 13.7341 126.716 13.9L127.15 13.6769C126.93 13.2325 126.463 13.1042 126.013 13.1042C125.479 13.1081 124.891 13.351 124.891 13.9435C124.891 14.5892 125.437 14.7472 126.029 14.8164C126.414 14.8578 126.7 14.9684 126.7 15.2409C126.7 15.553 126.376 15.6734 126.033 15.6734C125.681 15.6734 125.346 15.5332 125.217 15.2172L124.762 15.4522C124.977 15.9795 125.433 16.1612 126.025 16.1612C126.67 16.1612 127.242 15.8847 127.242 15.2429C127.242 14.5537 126.678 14.3977 126.074 14.3226Z" fill="#D9D9D9"/>
<path d="M128.208 13.2029H127.666V16.0862H128.208V13.2029Z" fill="#D9D9D9"/>
<path d="M130.416 15.0652C130.965 14.9546 131.148 14.5537 131.148 14.1587C131.148 13.6611 130.789 13.2069 130.106 13.2029C129.647 13.2029 129.187 13.199 128.728 13.199V16.0862H129.274V15.1225H129.8L130.644 16.0862H131.293V16.0486L130.416 15.0652ZM129.272 14.6327V13.7104H130.104C130.447 13.7104 130.6 13.9415 130.6 14.1726C130.6 14.4036 130.451 14.6347 130.104 14.6347H129.272V14.6327Z" fill="#D9D9D9"/>
<path d="M112.842 16.1928L110.583 15.3752V16.335L112.842 17.1526C113.017 17.2158 113.21 17.2158 113.386 17.1526L115.643 16.335V15.3733L113.384 16.1908C113.21 16.256 113.017 16.256 112.842 16.1928Z" fill="#D9D9D9"/>
<path d="M112.783 11.6132L110.583 14.8953L112.842 15.7129C113.017 15.7761 113.21 15.7761 113.386 15.7129L115.645 14.8953L113.444 11.6132C113.287 11.3782 112.94 11.3782 112.783 11.6132Z" fill="#D9D9D9"/>
<rect x="85.8304" y="77.7048" width="7.49132" height="2.88128" rx="1.44064" fill="#777F91"/>
<defs>
<linearGradient id="paint0_linear_1_15810" x1="116.7" y1="132.507" x2="123.332" y2="137.693" gradientUnits="userSpaceOnUse">
<stop stop-color="#FF7D00"/>
<stop offset="1" stop-color="#FFA95F"/>
</linearGradient>
<linearGradient id="paint1_linear_1_15810" x1="116.7" y1="108.823" x2="123.332" y2="114.009" gradientUnits="userSpaceOnUse">
<stop stop-color="#FF7D00"/>
<stop offset="1" stop-color="#FFA95F"/>
</linearGradient>
<linearGradient id="paint2_linear_1_15810" x1="28.0215" y1="69.3469" x2="32.324" y2="71.8835" gradientUnits="userSpaceOnUse">
<stop stop-color="#FF7D00"/>
<stop offset="1" stop-color="#FFA95F"/>
</linearGradient>
<linearGradient id="paint3_linear_1_15810" x1="27.2897" y1="69.8655" x2="30.9942" y2="73.7083" gradientUnits="userSpaceOnUse">
<stop stop-color="#FF7D00"/>
<stop offset="1" stop-color="#FFA95F"/>
</linearGradient>
</defs>
</svg>
