<svg width="21" height="14" viewBox="0 0 21 14" fill="none" xmlns="http://www.w3.org/2000/svg">
<path fill-rule="evenodd" clip-rule="evenodd" d="M10.5 14C6.79032 14 3.50442 11.8094 0.667957 7.5547L0.298157 7L0.667957 6.4453C3.50442 2.1906 6.79032 0 10.5 0C14.2097 0 17.4956 2.1906 20.3321 6.4453L20.7019 7L20.3321 7.5547C17.4956 11.8094 14.2097 14 10.5 14ZM10.5 12C13.3071 12 15.8953 10.3694 18.2865 7C15.8953 3.63059 13.3071 2 10.5 2C7.69293 2 5.10473 3.63059 2.71348 7C5.10473 10.3694 7.69293 12 10.5 12ZM14.5 7C14.5 9.20914 12.7091 11 10.5 11C8.29087 11 6.50001 9.20914 6.50001 7C6.50001 4.79086 8.29087 3 10.5 3V6C10.5 6.55228 10.9477 7 11.5 7H14.5Z" fill="#969696"/>
</svg>
