<svg width="785" height="210" viewBox="0 0 785 210" fill="none" xmlns="http://www.w3.org/2000/svg">
<path d="M176.48 162.991C176.477 162.984 176.47 162.98 176.466 162.977C176.463 162.97 165.245 150.462 165.245 150.462H168.238C171.703 150.462 174.521 147.628 174.521 144.143C174.521 142.703 174.025 141.291 173.127 140.174C173.124 140.167 173.117 140.164 173.114 140.16C173.11 140.153 163.66 129.613 163.66 129.613H165.12C167.92 129.613 170.201 127.319 170.201 124.502C170.201 123.336 169.799 122.195 169.073 121.292C169.069 121.289 169.062 121.282 169.059 121.278C169.055 121.271 161.742 113.115 161.742 113.115H162.371C164.592 113.115 166.398 111.299 166.398 109.066C166.398 108.142 166.08 107.239 165.504 106.523C165.5 106.516 165.493 106.512 165.49 106.509C165.483 106.502 156.595 96.5897 156.595 96.5897C155.76 95.6273 154.712 94.6404 153.273 94.6404C151.831 94.6404 150.787 95.6203 149.952 96.5827L141.057 106.502C141.05 106.516 141.043 106.519 141.04 106.523C140.463 107.239 140.146 108.142 140.146 109.066C140.146 111.299 141.951 113.115 144.172 113.115H144.808L137.495 121.271C137.484 121.285 137.481 121.289 137.477 121.292C136.751 122.195 136.349 123.336 136.349 124.502C136.349 127.319 138.626 129.613 141.431 129.613H142.88L133.43 140.15C133.419 140.164 133.416 140.167 133.412 140.171C132.511 141.291 132.019 142.7 132.019 144.14C132.019 147.624 134.837 150.459 138.302 150.459H141.291L130.077 162.966C130.07 162.98 130.063 162.984 130.06 162.987C129.019 164.283 128.443 165.917 128.443 167.585C128.443 171.621 131.708 174.901 135.717 174.901H148.206V183.524C148.206 183.815 148.44 184.051 148.73 184.051H157.827C158.117 184.051 158.351 183.815 158.351 183.524V174.901H170.826C174.839 174.901 178.101 171.617 178.101 167.585C178.097 165.92 177.521 164.287 176.48 162.991ZM141.193 109.069C141.193 108.377 141.42 107.731 141.85 107.193L150.731 97.2887C151.716 96.1542 152.449 95.6941 153.27 95.6941C154.098 95.6941 154.831 96.1542 155.809 97.2816C155.816 97.2887 164.697 107.193 164.697 107.193C165.126 107.731 165.353 108.377 165.353 109.069C165.353 110.72 164.019 112.065 162.375 112.065H153.277C153.27 112.065 144.172 112.065 144.172 112.065C142.527 112.062 141.193 110.72 141.193 109.069ZM137.397 124.502C137.397 123.579 137.715 122.679 138.288 121.963L146.219 113.115H153.27C153.277 113.115 160.335 113.115 160.335 113.115L168.266 121.963C168.839 122.679 169.157 123.582 169.157 124.502C169.157 126.74 167.348 128.559 165.123 128.559H153.277H141.431C139.203 128.559 137.397 126.74 137.397 124.502ZM133.06 144.143C133.06 142.928 133.461 141.787 134.216 140.842L144.284 129.613H153.27H162.242L172.31 140.842C173.068 141.787 173.466 142.928 173.466 144.143C173.466 147.045 171.119 149.408 168.231 149.408H153.259H138.288C135.41 149.408 133.06 147.045 133.06 144.143ZM157.297 183.001H149.247V174.905H153.263H157.293V183.001H157.297ZM170.819 173.851H157.82H153.266H148.726H135.714C132.281 173.851 129.487 171.041 129.487 167.588C129.487 166.141 129.962 164.782 130.866 163.658L142.702 150.459H153.27H163.838L175.673 163.658C176.574 164.782 177.053 166.141 177.053 167.588C177.049 171.041 174.256 173.851 170.819 173.851Z" fill="#D1D1D1"/>
<path d="M784.323 184H0.677374C0.30256 184 0 183.777 0 183.5C0 183.223 0.30256 183 0.677374 183H784.323C784.697 183 785 183.223 785 183.5C785 183.777 784.693 184 784.323 184Z" fill="#D1D1D1"/>
<path d="M200.497 195.424H115.112C114.823 195.424 114.589 195.188 114.589 194.897C114.589 194.605 114.823 194.37 115.112 194.37H200.497C200.787 194.37 201.021 194.605 201.021 194.897C201.021 195.185 200.787 195.424 200.497 195.424Z" fill="#D1D1D1"/>
<path d="M271.738 195.424H217.784C217.494 195.424 217.26 195.188 217.26 194.897C217.26 194.605 217.494 194.37 217.784 194.37H271.738C272.028 194.37 272.262 194.605 272.262 194.897C272.262 195.185 272.028 195.424 271.738 195.424Z" fill="#D1D1D1"/>
<path d="M195.503 210H182.162C181.872 210 181.638 209.765 181.638 209.473C181.638 209.182 181.872 208.946 182.162 208.946H195.503C195.793 208.946 196.027 209.182 196.027 209.473C196.027 209.761 195.793 210 195.503 210Z" fill="#D1D1D1"/>
<path d="M521.606 210H291.12C290.83 210 290.596 209.765 290.596 209.473C290.596 209.182 290.83 208.946 291.12 208.946H521.606C521.895 208.946 522.129 209.182 522.129 209.473C522.129 209.761 521.892 210 521.606 210Z" fill="#D1D1D1"/>
<path d="M389.601 195.424H322.552C322.262 195.424 322.028 195.188 322.028 194.897C322.028 194.605 322.262 194.37 322.552 194.37H389.601C389.891 194.37 390.125 194.605 390.125 194.897C390.125 195.185 389.888 195.424 389.601 195.424Z" fill="#D1D1D1"/>
<path d="M605.943 195.424H555.132C554.842 195.424 554.608 195.188 554.608 194.897C554.608 194.605 554.842 194.37 555.132 194.37H605.943C606.232 194.37 606.466 194.605 606.466 194.897C606.466 195.185 606.229 195.424 605.943 195.424Z" fill="#D1D1D1"/>
<path d="M618.512 210H600.103C599.813 210 599.579 209.765 599.579 209.473C599.579 209.182 599.813 208.946 600.103 208.946H618.512C618.801 208.946 619.035 209.182 619.035 209.473C619.035 209.761 618.801 210 618.512 210Z" fill="#D1D1D1"/>
<path d="M192.744 23.5046C184.502 23.5046 176.742 61.1114 176.742 90.2569C176.742 101.841 177.954 111.556 180.241 118.356C182.885 126.202 186.912 130.305 192.217 130.558V183.829C192.217 184.121 192.451 184.356 192.741 184.356C193.03 184.356 193.264 184.121 193.264 183.829V130.561C198.569 130.308 202.599 126.209 205.24 118.359C207.531 111.559 208.739 101.841 208.739 90.2604C208.743 61.1114 200.986 23.5046 192.744 23.5046ZM204.251 118.022C201.772 125.387 198.077 129.244 193.268 129.504V101.43L200.941 92.7787C201.133 92.561 201.115 92.2273 200.899 92.0341C200.682 91.841 200.35 91.8585 200.158 92.0763L193.268 99.8456V81.8062L201.461 72.5687C201.653 72.3509 201.636 72.0172 201.419 71.8241C201.203 71.6309 200.871 71.6484 200.679 71.8662L193.268 80.2221V55.6321C193.268 55.3406 193.034 55.1053 192.744 55.1053C192.454 55.1053 192.22 55.3406 192.22 55.6321V72.0594L187.663 66.9208C187.471 66.703 187.139 66.6855 186.922 66.8787C186.706 67.0718 186.688 67.4055 186.88 67.6233L192.22 73.6435V91.0472L185.396 83.3516C185.204 83.1338 184.872 83.1163 184.656 83.3094C184.439 83.5026 184.422 83.8363 184.614 84.0541L192.22 92.6312V108.883L187.663 103.744C187.471 103.527 187.139 103.509 186.922 103.702C186.706 103.895 186.688 104.229 186.88 104.447L192.22 110.467V129.507C187.411 129.247 183.716 125.387 181.237 118.026C178.984 111.331 177.793 101.732 177.793 90.2639C177.793 76.0143 179.644 59.4606 182.745 45.9907C185.787 32.7737 189.618 24.5654 192.748 24.5654C195.877 24.5654 199.708 32.7737 202.75 45.9907C205.851 59.4641 207.702 76.0143 207.702 90.2639C207.695 101.728 206.504 111.327 204.251 118.022Z" fill="#D1D1D1"/>
<path d="M122.918 107.327C121.647 101.802 118.989 92.5329 115.479 92.5329C111.969 92.5329 109.311 101.802 108.04 107.327C105.983 116.266 104.754 127.246 104.754 136.701C104.754 144.354 105.554 150.775 107.069 155.274C108.781 160.356 111.372 163.089 114.781 163.412V183.678C114.781 183.97 115.015 184.205 115.304 184.205C115.594 184.205 115.828 183.97 115.828 183.678V163.43C119.404 163.261 122.114 160.525 123.882 155.274C125.397 150.775 126.197 144.351 126.197 136.701C126.204 127.246 124.975 116.266 122.918 107.327ZM122.893 154.937C121.287 159.703 118.912 162.197 115.832 162.376V150.722L120.246 145.745C120.438 145.527 120.421 145.194 120.204 145C119.988 144.807 119.656 144.825 119.464 145.043L115.832 149.138V139.289L120.55 133.968C120.742 133.75 120.725 133.417 120.508 133.224C120.291 133.03 119.96 133.048 119.768 133.266L115.832 137.705V123.954C115.832 123.663 115.598 123.428 115.308 123.428C115.018 123.428 114.784 123.663 114.784 123.954V132.946L112.51 130.382C112.318 130.164 111.987 130.147 111.77 130.34C111.554 130.533 111.536 130.867 111.728 131.084L114.784 134.53V144.01L111.19 139.957C110.998 139.739 110.667 139.721 110.45 139.915C110.233 140.108 110.216 140.441 110.408 140.659L114.784 145.594V154.403L112.51 151.839C112.318 151.621 111.987 151.604 111.77 151.797C111.554 151.99 111.536 152.324 111.728 152.541L114.784 155.987V162.351C111.868 162.014 109.608 159.528 108.065 154.94C106.584 150.546 105.805 144.242 105.805 136.704C105.805 115.887 111.484 93.5901 115.479 93.5901C119.474 93.5901 125.153 115.89 125.153 136.704C125.156 144.238 124.374 150.543 122.893 154.937Z" fill="#D1D1D1"/>
<path d="M177.346 162.639C180.426 162.639 182.05 163.282 182.305 163.591C182.05 163.9 180.426 164.543 177.346 164.543C174.269 164.543 172.642 163.9 172.391 163.591C172.642 163.282 174.269 162.639 177.346 162.639Z" fill="white"/>
<path d="M185.857 167.929V183.815C185.857 184.107 185.623 184.342 185.333 184.342C185.043 184.342 184.809 184.107 184.809 183.815V168.456H183.37V179.485C183.37 181.065 179.585 181.487 177.346 181.487C175.111 181.487 171.325 181.065 171.325 179.485V168.456H169.886V183.815C169.886 184.107 169.649 184.342 169.363 184.342C169.073 184.342 168.839 184.107 168.839 183.815V167.929C168.839 167.637 169.073 167.402 169.363 167.402H171.325V163.591C171.325 162.007 175.111 161.586 177.346 161.586C179.585 161.586 183.37 162.007 183.37 163.591V167.402H185.333C185.623 167.402 185.857 167.637 185.857 167.929ZM182.323 179.457V167.016C181.038 167.616 178.844 167.806 177.346 167.806C175.848 167.806 173.658 167.616 172.373 167.016V179.457C172.548 179.755 174.179 180.433 177.346 180.433C180.514 180.433 182.145 179.755 182.323 179.457ZM182.323 165.772V164.807C181.038 165.407 178.844 165.597 177.346 165.597C175.848 165.597 173.658 165.407 172.373 164.807V165.772C172.548 166.071 174.179 166.752 177.346 166.752C180.514 166.752 182.145 166.071 182.323 165.772ZM182.305 163.591C182.05 163.282 180.426 162.639 177.346 162.639C174.269 162.639 172.642 163.282 172.391 163.591C172.642 163.9 174.269 164.543 177.346 164.543C180.426 164.543 182.05 163.9 182.305 163.591Z" fill="#D1D1D1"/>
<path d="M182.323 167.016V179.457C182.145 179.755 180.514 180.433 177.346 180.433C174.179 180.433 172.548 179.755 172.373 179.457V167.016C173.658 167.616 175.848 167.806 177.346 167.806C178.844 167.806 181.038 167.616 182.323 167.016Z" fill="white"/>
<path d="M182.323 164.807V165.772C182.145 166.071 180.514 166.752 177.346 166.752C174.179 166.752 172.548 166.071 172.373 165.772V164.807C173.658 165.407 175.848 165.597 177.346 165.597C178.844 165.597 181.038 165.407 182.323 164.807Z" fill="white"/>
<path d="M481.856 167.399H479.893V163.588C479.893 162.004 476.107 161.582 473.869 161.582C471.63 161.582 467.844 162.004 467.844 163.588V167.399H465.881C465.592 167.399 465.358 167.634 465.358 167.926V183.815C465.358 184.107 465.592 184.342 465.881 184.342C466.171 184.342 466.405 184.107 466.405 183.815V168.452H467.844V179.481C467.844 181.065 471.63 181.487 473.869 181.487C476.107 181.487 479.893 181.065 479.893 179.481V168.452H481.332V183.815C481.332 184.107 481.566 184.342 481.856 184.342C482.145 184.342 482.379 184.107 482.379 183.815V167.926C482.379 167.638 482.145 167.399 481.856 167.399ZM468.895 164.803C470.181 165.404 472.374 165.593 473.872 165.593C475.37 165.593 477.563 165.404 478.849 164.803V165.772C478.671 166.071 477.043 166.749 473.872 166.749C470.704 166.749 469.074 166.071 468.895 165.772V164.803ZM473.872 162.639C476.952 162.639 478.576 163.282 478.828 163.591C478.576 163.9 476.949 164.543 473.872 164.543C470.795 164.543 469.168 163.9 468.916 163.591C469.164 163.279 470.792 162.639 473.872 162.639ZM473.872 180.433C470.704 180.433 469.074 179.755 468.895 179.457V167.012C470.181 167.613 472.374 167.803 473.872 167.803C475.37 167.803 477.563 167.613 478.849 167.012V179.457C478.671 179.752 477.04 180.433 473.872 180.433Z" fill="#D1D1D1"/>
<path d="M305.048 172.541C305.83 171.382 306.246 170.029 306.246 168.617C306.246 164.75 303.116 161.607 299.275 161.607C298.803 161.607 298.339 161.66 297.881 161.751C297.885 161.674 297.892 161.596 297.892 161.516C297.892 157.648 294.763 154.505 290.921 154.505C287.97 154.505 285.361 156.373 284.369 159.117C283.102 157.996 281.457 157.36 279.76 157.36C275.914 157.36 272.789 160.507 272.789 164.371C272.789 165.593 273.1 166.774 273.693 167.824C270.945 169.397 269.241 172.323 269.241 175.512C269.241 180.387 273.183 184.353 278.031 184.353H299.984C303.829 184.353 306.955 181.206 306.955 177.342C306.951 175.558 306.26 173.837 305.048 172.541ZM299.98 183.303H278.027C273.756 183.303 270.285 179.808 270.285 175.516C270.285 172.657 271.839 170.033 274.339 168.667C274.409 168.628 274.465 168.575 274.511 168.516C274.58 168.502 274.647 168.481 274.71 168.438C274.951 168.277 275.013 167.947 274.849 167.708C274.186 166.721 273.837 165.569 273.837 164.375C273.837 161.091 276.494 158.418 279.76 158.418C281.394 158.418 282.973 159.106 284.09 160.311C284.268 160.504 284.555 160.522 284.764 160.378C284.963 160.346 285.138 160.202 285.194 159.991C285.878 157.381 288.236 155.559 290.921 155.559C294.187 155.559 296.844 158.231 296.844 161.516C296.844 161.705 296.834 161.898 296.816 162.081C296.809 162.137 296.816 162.193 296.83 162.25C296.788 162.358 296.781 162.478 296.82 162.597C296.907 162.875 297.2 163.029 297.476 162.938C298.056 162.752 298.66 162.657 299.275 162.657C302.54 162.657 305.198 165.33 305.198 168.614C305.198 169.871 304.814 171.073 304.087 172.088C304.066 172.116 304.052 172.144 304.038 172.176C304.018 172.193 303.993 172.2 303.976 172.221C303.78 172.435 303.791 172.769 304.004 172.966C305.212 174.09 305.907 175.684 305.907 177.342C305.903 180.63 303.246 183.303 299.98 183.303Z" fill="#D1D1D1"/>
<path d="M452.649 174.704C453.26 173.767 453.588 172.681 453.588 171.55C453.588 168.372 451.018 165.787 447.857 165.787C447.515 165.787 447.173 165.822 446.838 165.881C446.838 165.86 446.841 165.839 446.841 165.815C446.841 162.636 444.271 160.051 441.11 160.051C438.735 160.051 436.629 161.526 435.781 163.711C434.754 162.847 433.451 162.359 432.1 162.359C428.939 162.359 426.369 164.944 426.369 168.122C426.369 169.092 426.61 170.029 427.067 170.872C424.867 172.172 423.505 174.539 423.505 177.117C423.505 181.107 426.736 184.356 430.703 184.356H448.427C451.587 184.356 454.158 181.771 454.158 178.593C454.161 177.153 453.613 175.762 452.649 174.704ZM448.43 183.303H430.706C427.315 183.303 424.556 180.528 424.556 177.117C424.556 174.848 425.789 172.762 427.776 171.677C427.832 171.645 427.878 171.607 427.919 171.561C427.975 171.547 428.031 171.526 428.084 171.491C428.325 171.329 428.387 170.999 428.223 170.76C427.699 169.98 427.424 169.071 427.424 168.126C427.424 165.53 429.522 163.416 432.107 163.416C433.399 163.416 434.646 163.96 435.529 164.912C435.704 165.098 435.973 165.119 436.182 164.993C436.374 164.958 436.539 164.814 436.591 164.61C437.132 162.548 438.994 161.108 441.117 161.108C443.698 161.108 445.8 163.219 445.8 165.818C445.8 165.969 445.793 166.12 445.779 166.268C445.776 166.313 445.779 166.359 445.786 166.401C445.755 166.503 445.751 166.612 445.786 166.721C445.874 166.998 446.167 167.149 446.443 167.062C446.9 166.914 447.379 166.84 447.864 166.84C450.445 166.84 452.548 168.951 452.548 171.55C452.548 172.544 452.244 173.493 451.668 174.297C451.654 174.318 451.643 174.339 451.633 174.36C451.619 174.374 451.601 174.378 451.587 174.395C451.392 174.61 451.402 174.943 451.615 175.14C452.572 176.029 453.117 177.29 453.117 178.596C453.113 181.192 451.011 183.303 448.43 183.303Z" fill="#D1D1D1"/>
<path d="M621.183 173.651C621.878 172.604 622.248 171.389 622.248 170.121C622.248 166.608 619.406 163.749 615.913 163.749C615.508 163.749 615.107 163.792 614.712 163.869C614.712 163.82 614.719 163.77 614.719 163.721C614.719 160.209 611.876 157.35 608.384 157.35C605.73 157.35 603.379 159.015 602.457 161.473C601.315 160.483 599.841 159.928 598.322 159.928C594.83 159.928 591.987 162.787 591.987 166.299C591.987 167.392 592.263 168.449 592.787 169.394C590.318 170.827 588.792 173.468 588.792 176.341C588.792 180.763 592.371 184.363 596.768 184.363H616.556C620.048 184.363 622.891 181.504 622.891 177.992C622.884 176.376 622.266 174.824 621.183 173.651ZM616.549 183.303H596.761C592.941 183.303 589.832 180.177 589.832 176.334C589.832 173.777 591.222 171.427 593.457 170.209C593.52 170.173 593.573 170.128 593.615 170.075C593.677 170.061 593.737 170.04 593.793 170.001C594.034 169.84 594.097 169.51 593.932 169.271C593.339 168.389 593.028 167.36 593.028 166.292C593.028 163.359 595.399 160.975 598.315 160.975C599.796 160.975 601.169 161.575 602.181 162.664C602.356 162.854 602.635 162.875 602.845 162.738C603.04 162.703 603.208 162.559 603.264 162.355C603.875 160.026 605.978 158.4 608.377 158.4C611.293 158.4 613.664 160.785 613.664 163.718C613.664 163.886 613.657 164.055 613.64 164.224C613.636 164.276 613.64 164.325 613.65 164.375C613.615 164.48 613.608 164.592 613.643 164.708C613.731 164.986 614.024 165.14 614.3 165.049C614.817 164.884 615.358 164.8 615.906 164.8C618.822 164.8 621.194 167.184 621.194 170.117C621.194 171.238 620.852 172.312 620.202 173.219C620.185 173.243 620.171 173.268 620.16 173.292C620.143 173.306 620.122 173.313 620.108 173.331C619.912 173.545 619.923 173.879 620.136 174.076C621.215 175.08 621.833 176.503 621.833 177.981C621.836 180.918 619.465 183.303 616.549 183.303Z" fill="#D1D1D1"/>
<path d="M558.604 28.8996C557.228 28.8996 556.651 29.7742 556.187 30.4802C555.747 31.1475 555.401 31.6744 554.444 31.6744C554.409 31.6744 554.378 31.6779 554.346 31.6849C554.315 31.6779 554.28 31.6744 554.249 31.6744C553.292 31.6744 552.942 31.1475 552.506 30.4802C552.178 29.9814 551.787 29.3949 551.099 29.0963C551.001 28.9769 550.858 28.8996 550.693 28.8996C550.589 28.8996 550.487 28.9067 550.393 28.9172C550.295 28.9067 550.198 28.8996 550.093 28.8996C549.929 28.8996 549.785 28.9769 549.688 29.0963C548.996 29.3949 548.608 29.9779 548.28 30.4802C547.84 31.1475 547.494 31.6744 546.537 31.6744C546.503 31.6744 546.471 31.6779 546.44 31.6849C546.408 31.6779 546.373 31.6744 546.342 31.6744C545.385 31.6744 545.039 31.1475 544.599 30.4802C544.135 29.7777 543.559 28.8996 542.183 28.8996C542.148 28.8996 542.113 28.9031 542.081 28.9102C542.05 28.9031 542.015 28.8996 541.98 28.8996C540.604 28.8996 540.028 29.7742 539.563 30.4802C539.123 31.1475 538.777 31.6744 537.821 31.6744C537.786 31.6744 537.754 31.6779 537.723 31.6849C537.691 31.6779 537.656 31.6744 537.625 31.6744C536.668 31.6744 536.319 31.1475 535.882 30.4802C535.418 29.7777 534.842 28.8996 533.466 28.8996C533.431 28.8996 533.396 28.9031 533.364 28.9102C533.333 28.9031 533.298 28.8996 533.263 28.8996C531.887 28.8996 531.311 29.7742 530.846 30.4802C530.406 31.1475 530.061 31.6744 529.104 31.6744C528.814 31.6744 528.58 31.9097 528.58 32.2012C528.58 32.4928 528.814 32.7281 529.104 32.7281C530.623 32.7281 531.231 31.8043 531.719 31.0632C532.184 30.3573 532.488 29.9568 533.263 29.9568C533.298 29.9568 533.333 29.9533 533.364 29.9463C533.396 29.9533 533.431 29.9568 533.466 29.9568C534.241 29.9568 534.541 30.3573 535.009 31.0632C535.498 31.8043 536.106 32.7281 537.625 32.7281C537.66 32.7281 537.691 32.7246 537.723 32.7176C537.754 32.7246 537.789 32.7281 537.821 32.7281C539.34 32.7281 539.947 31.8043 540.436 31.0632C540.901 30.3573 541.205 29.9568 541.98 29.9568C542.015 29.9568 542.05 29.9533 542.081 29.9463C542.113 29.9533 542.148 29.9568 542.183 29.9568C542.958 29.9568 543.258 30.3573 543.726 31.0632C544.215 31.8043 544.823 32.7281 546.342 32.7281C546.377 32.7281 546.408 32.7246 546.44 32.7176C546.471 32.7246 546.506 32.7281 546.537 32.7281C548.057 32.7281 548.664 31.8043 549.153 31.0632C549.555 30.4556 549.834 30.0763 550.393 29.9814C550.952 30.0763 551.235 30.4556 551.633 31.0632C552.122 31.8043 552.729 32.7281 554.249 32.7281C554.284 32.7281 554.315 32.7246 554.346 32.7176C554.378 32.7246 554.413 32.7281 554.444 32.7281C555.963 32.7281 556.571 31.8043 557.06 31.0632C557.524 30.3573 557.828 29.9568 558.604 29.9568C558.893 29.9568 559.127 29.7215 559.127 29.43C559.127 29.135 558.893 28.8996 558.604 28.8996Z" fill="#D1D1D1"/>
<path d="M145.216 62.2424C143.841 62.2424 143.264 63.117 142.8 63.823C142.36 64.4903 142.014 65.0172 141.057 65.0172C141.022 65.0172 140.991 65.0207 140.959 65.0277C140.928 65.0207 140.893 65.0172 140.862 65.0172C139.905 65.0172 139.559 64.4903 139.119 63.823C138.791 63.3242 138.399 62.7376 137.711 62.4391C137.617 62.3197 137.47 62.2424 137.306 62.2424C137.202 62.2424 137.1 62.2494 137.006 62.26C136.908 62.2494 136.81 62.2424 136.706 62.2424C136.541 62.2424 136.398 62.3197 136.301 62.4391C135.609 62.7376 135.221 63.3207 134.893 63.823C134.453 64.4903 134.107 65.0172 133.15 65.0172C133.115 65.0172 133.084 65.0207 133.053 65.0277C133.021 65.0207 132.986 65.0172 132.955 65.0172C131.998 65.0172 131.652 64.4903 131.212 63.823C130.748 63.1205 130.171 62.2424 128.795 62.2424C128.76 62.2424 128.726 62.2459 128.694 62.2529C128.659 62.2459 128.628 62.2424 128.593 62.2424C127.217 62.2424 126.641 63.117 126.176 63.823C125.736 64.4903 125.39 65.0172 124.433 65.0172C124.399 65.0172 124.367 65.0207 124.336 65.0277C124.304 65.0207 124.269 65.0172 124.238 65.0172C123.281 65.0172 122.932 64.4903 122.495 63.823C122.031 63.1205 121.454 62.2424 120.078 62.2424C120.044 62.2424 120.009 62.2459 119.977 62.2529C119.942 62.2459 119.911 62.2424 119.876 62.2424C118.5 62.2424 117.924 63.117 117.459 63.823C117.019 64.4903 116.673 65.0172 115.717 65.0172C115.427 65.0172 115.193 65.2525 115.193 65.544C115.193 65.8355 115.427 66.0709 115.717 66.0709C117.236 66.0709 117.843 65.1471 118.332 64.406C118.797 63.7 119.101 63.2996 119.876 63.2996C119.911 63.2996 119.946 63.2961 119.977 63.2891C120.012 63.2961 120.044 63.2996 120.078 63.2996C120.854 63.2996 121.154 63.7 121.622 64.406C122.111 65.1471 122.719 66.0709 124.238 66.0709C124.273 66.0709 124.304 66.0674 124.336 66.0603C124.367 66.0674 124.402 66.0709 124.433 66.0709C125.953 66.0709 126.56 65.1471 127.049 64.406C127.514 63.7 127.818 63.2996 128.593 63.2996C128.628 63.2996 128.663 63.2961 128.694 63.2891C128.726 63.2961 128.76 63.2996 128.795 63.2996C129.571 63.2996 129.871 63.7 130.339 64.406C130.828 65.1471 131.436 66.0709 132.955 66.0709C132.99 66.0709 133.021 66.0674 133.053 66.0603C133.084 66.0674 133.119 66.0709 133.15 66.0709C134.67 66.0709 135.277 65.1471 135.766 64.406C136.168 63.7984 136.447 63.419 137.006 63.3242C137.565 63.419 137.848 63.7984 138.246 64.406C138.735 65.1471 139.342 66.0709 140.862 66.0709C140.896 66.0709 140.928 66.0674 140.959 66.0603C140.991 66.0674 141.026 66.0709 141.057 66.0709C142.576 66.0709 143.184 65.1471 143.673 64.406C144.141 63.7 144.441 63.2996 145.216 63.2996C145.506 63.2996 145.74 63.0643 145.74 62.7728C145.74 62.4777 145.506 62.2424 145.216 62.2424Z" fill="#D1D1D1"/>
<path d="M590.37 14.3199C589.494 14.3199 588.641 14.5973 587.932 15.1066C587.929 15.0926 587.929 15.075 587.929 15.061C587.451 11.805 584.615 9.34637 581.335 9.34637C580.012 9.34637 578.751 9.73273 577.661 10.4633C576.306 7.12656 573.059 4.90675 569.447 4.90675C568.201 4.90675 566.999 5.16316 565.868 5.66542C563.846 2.16361 560.137 0 556.093 0C549.855 0 544.781 5.10345 544.781 11.3765C544.781 17.6496 549.855 22.753 556.093 22.753C556.145 22.753 556.197 22.7425 556.246 22.7284C556.295 22.7425 556.344 22.753 556.4 22.753H590.374C592.686 22.753 594.564 20.8599 594.564 18.5382C594.561 16.213 592.682 14.3199 590.37 14.3199ZM590.37 21.6993H556.396C556.344 21.6993 556.292 21.7098 556.243 21.7239C556.194 21.7098 556.145 21.6993 556.089 21.6993C550.428 21.6993 545.825 17.07 545.825 11.3765C545.825 5.68298 550.428 1.05371 556.089 1.05371C559.882 1.05371 563.353 3.14355 565.145 6.5119C565.281 6.76479 565.592 6.86313 565.843 6.72967C565.945 6.74723 566.049 6.73318 566.147 6.68752C567.184 6.20281 568.291 5.95695 569.444 5.95695C572.734 5.95695 575.695 8.0468 576.809 11.1623C576.886 11.3765 577.089 11.51 577.302 11.51C577.309 11.51 577.319 11.5065 577.326 11.5065C577.508 11.6575 577.773 11.6715 577.972 11.524C578.947 10.7899 580.11 10.4036 581.332 10.4036C584.094 10.4036 586.483 12.4724 586.888 15.219C586.93 15.493 586.948 15.774 586.948 16.055C586.948 16.3465 587.182 16.5818 587.471 16.5818C587.678 16.5818 587.852 16.4624 587.936 16.2903C588.062 16.2938 588.187 16.2516 588.292 16.1603C588.865 15.6546 589.602 15.3771 590.363 15.3771C592.095 15.3771 593.506 16.7961 593.506 18.5382C593.513 20.2803 592.102 21.6993 590.37 21.6993Z" fill="#D1D1D1"/>
<path d="M406.836 14.787H405.328V13.2697C405.328 12.9781 405.094 12.7428 404.804 12.7428C404.514 12.7428 404.28 12.9781 404.28 13.2697V14.787H402.771C402.481 14.787 402.247 15.0223 402.247 15.3138C402.247 15.6054 402.481 15.8407 402.771 15.8407H404.28V17.358C404.28 17.6496 404.514 17.8849 404.804 17.8849C405.094 17.8849 405.328 17.6496 405.328 17.358V15.8407H406.836C407.126 15.8407 407.36 15.6054 407.36 15.3138C407.36 15.0223 407.126 14.787 406.836 14.787Z" fill="#D1D1D1"/>
<path d="M607.972 50.6727H606.463V49.1554C606.463 48.8639 606.229 48.6285 605.939 48.6285C605.649 48.6285 605.415 48.8639 605.415 49.1554V50.6727H603.907C603.617 50.6727 603.383 50.9081 603.383 51.1996C603.383 51.4911 603.617 51.7264 603.907 51.7264H605.415V53.2438C605.415 53.5353 605.649 53.7706 605.939 53.7706C606.229 53.7706 606.463 53.5353 606.463 53.2438V51.7264H607.972C608.261 51.7264 608.495 51.4911 608.495 51.1996C608.495 50.9081 608.261 50.6727 607.972 50.6727Z" fill="#D1D1D1"/>
<path d="M204.716 9.34636C204.426 9.34636 204.192 9.11104 204.192 8.81951V4.73465C204.192 4.44312 204.426 4.20779 204.716 4.20779C205.006 4.20779 205.24 4.44312 205.24 4.73465V8.82302C205.24 9.11104 205.006 9.34636 204.716 9.34636Z" fill="#D1D1D1"/>
<path d="M206.748 7.30215H202.683C202.393 7.30215 202.159 7.06682 202.159 6.7753C202.159 6.48377 202.393 6.24844 202.683 6.24844H206.748C207.038 6.24844 207.272 6.48377 207.272 6.7753C207.272 7.06682 207.038 7.30215 206.748 7.30215Z" fill="#D1D1D1"/>
<path d="M353.668 44.3505C353.536 44.3505 353.4 44.2978 353.298 44.1959L350.386 41.2666C350.288 41.1683 350.232 41.0348 350.232 40.8943C350.232 40.7538 350.288 40.6204 350.386 40.522L353.298 37.5927C353.396 37.4944 353.529 37.4382 353.668 37.4382C353.808 37.4382 353.941 37.4944 354.039 37.5927L356.951 40.522C357.157 40.7292 357.157 41.0629 356.951 41.2666L354.039 44.1959C353.937 44.3013 353.805 44.3505 353.668 44.3505ZM351.496 40.8943L353.668 43.079L355.841 40.8943L353.668 38.7096L351.496 40.8943Z" fill="#D1D1D1"/>
<path d="M698.846 89.305L695.934 86.3757C695.728 86.1685 695.396 86.1685 695.193 86.3757L692.281 89.305C692.075 89.5123 692.075 89.8459 692.281 90.0497L695.193 92.979C695.295 93.0808 695.431 93.1335 695.564 93.1335C695.696 93.1335 695.832 93.0808 695.934 92.979L698.846 90.0497C699.049 89.8459 699.049 89.5123 698.846 89.305ZM695.564 91.862L693.391 89.6773L695.564 87.4927L697.736 89.6773L695.564 91.862Z" fill="#D1D1D1"/>
<path d="M95.4818 87.159C95.3491 87.159 95.2129 87.1063 95.1116 87.0044L92.199 84.0751C92.1012 83.9768 92.0453 83.8433 92.0453 83.7028C92.0453 83.5623 92.1012 83.4289 92.199 83.3305L95.1116 80.4012C95.3177 80.194 95.6495 80.194 95.852 80.4012L98.7646 83.3305C98.9707 83.5377 98.9707 83.8714 98.7646 84.0751L95.852 87.0044C95.7507 87.1063 95.618 87.159 95.4818 87.159ZM93.3096 83.7028L95.4818 85.8875L97.6541 83.7028L95.4818 81.5181L93.3096 83.7028Z" fill="#D1D1D1"/>
<path d="M431.265 133.062C427.046 133.062 423.617 136.515 423.617 140.757C423.617 142.942 424.528 144.916 425.988 146.321L419.101 155.467V132.019C428.426 131.738 435.928 124.028 435.928 114.583C435.928 104.963 428.147 97.134 418.577 97.134C410.028 97.134 402.907 103.386 401.489 111.584C395.28 111.724 390.272 116.845 390.272 123.122C390.272 129.486 395.42 134.667 401.751 134.667C403.487 134.667 405.153 134.281 406.662 133.564L418.054 151.435V183.352C418.054 183.643 418.288 183.879 418.577 183.879C418.867 183.879 419.101 183.643 419.101 183.352V157.213L426.795 146.995C428.052 147.912 429.596 148.453 431.265 148.453C435.484 148.453 438.917 145 438.917 140.757C438.913 136.515 435.484 133.062 431.265 133.062ZM418.577 98.1877C427.567 98.1877 434.88 105.543 434.88 114.583C434.88 123.445 427.85 130.684 419.101 130.965V108.405C419.101 108.114 418.867 107.878 418.577 107.878C418.288 107.878 418.054 108.114 418.054 108.405V130.965C409.309 130.684 402.275 123.449 402.275 114.583C402.275 105.543 409.588 98.1877 418.577 98.1877ZM401.751 133.613C395.999 133.613 391.32 128.907 391.32 123.122C391.32 117.478 395.776 112.862 401.336 112.641C401.266 113.28 401.227 113.927 401.227 114.58C401.227 121.018 404.716 126.652 409.892 129.672C409.078 130.695 408.111 131.538 407.025 132.177L400.11 121.327C399.953 121.081 399.628 121.011 399.387 121.169C399.143 121.327 399.073 121.654 399.23 121.896L406.092 132.661C404.751 133.28 403.281 133.613 401.751 133.613ZM407.591 133.065C408.82 132.331 409.92 131.362 410.828 130.182C413.014 131.285 415.462 131.934 418.054 132.012V149.475L407.591 133.065ZM431.265 147.396C429.833 147.396 428.513 146.932 427.431 146.149L432.659 139.205C432.833 138.973 432.788 138.643 432.557 138.467C432.327 138.292 431.999 138.337 431.824 138.569L426.627 145.471C425.419 144.266 424.665 142.598 424.665 140.754C424.665 137.094 427.626 134.112 431.265 134.112C434.904 134.112 437.869 137.091 437.869 140.754C437.866 144.417 434.904 147.396 431.265 147.396Z" fill="#D1D1D1"/>
<path d="M691.827 168.551L676.331 97.7171C676.328 97.7066 676.324 97.696 676.321 97.682C676.314 97.6644 676.31 97.6434 676.303 97.6258C676.296 97.6082 676.289 97.5942 676.279 97.5801C676.272 97.5661 676.265 97.552 676.254 97.538C676.244 97.5204 676.23 97.5064 676.219 97.4923C676.209 97.4818 676.202 97.4712 676.191 97.4607C676.177 97.4467 676.16 97.4326 676.142 97.4186C676.132 97.4115 676.125 97.401 676.115 97.394C676.094 97.3799 676.073 97.3694 676.052 97.3588C676.045 97.3553 676.034 97.3483 676.027 97.3448C675.999 97.3343 675.971 97.3237 675.943 97.3167C675.905 97.3062 675.881 97.3062 675.856 97.3026C675.842 97.3026 675.832 97.2991 675.818 97.2991C675.807 97.2991 675.797 97.3026 675.786 97.3026C675.758 97.3026 675.734 97.3062 675.706 97.3132C675.667 97.3237 675.636 97.3307 675.608 97.3448C675.601 97.3483 675.598 97.3518 675.591 97.3518C675.566 97.3624 675.542 97.3764 675.521 97.394C675.514 97.401 675.507 97.4045 675.496 97.4115C675.479 97.4256 675.461 97.4396 675.444 97.4572C675.437 97.4642 675.43 97.4748 675.42 97.4853C675.406 97.5028 675.392 97.5169 675.381 97.5345C675.374 97.5485 675.367 97.559 675.36 97.5731C675.35 97.5907 675.343 97.6047 675.336 97.6223C675.329 97.6398 675.322 97.6574 675.318 97.6785C675.315 97.689 675.311 97.6995 675.308 97.7136L659.812 168.547C659.777 168.702 659.816 168.867 659.917 168.99C660.015 169.113 660.165 169.186 660.326 169.186H672.636V183.728C672.636 184.019 672.87 184.254 673.16 184.254H678.486C678.776 184.254 679.01 184.019 679.01 183.728V169.186H691.32C691.477 169.186 691.628 169.113 691.729 168.99C691.823 168.87 691.858 168.705 691.827 168.551ZM677.955 183.204H673.677V169.19H675.814H677.952V183.204H677.955ZM678.479 168.136H675.818H673.157H660.975L675.821 100.281L690.667 168.136H678.479Z" fill="#D1D1D1"/>
<path d="M650.481 160.03L634.28 85.9859C634.276 85.9753 634.273 85.9648 634.269 85.9543C634.262 85.9332 634.259 85.9156 634.252 85.8981C634.245 85.884 634.238 85.87 634.231 85.8524C634.224 85.8383 634.213 85.8208 634.206 85.8067C634.196 85.7927 634.185 85.7786 634.171 85.7646C634.161 85.754 634.15 85.74 634.14 85.7295C634.126 85.7154 634.112 85.7049 634.094 85.6908C634.084 85.6803 634.074 85.6733 634.063 85.6662C634.046 85.6522 634.025 85.6417 634.004 85.6311C633.993 85.6276 633.986 85.6206 633.976 85.6171C633.948 85.6065 633.923 85.596 633.895 85.589C633.857 85.5784 633.833 85.5784 633.808 85.5749C633.794 85.5749 633.784 85.5714 633.77 85.5714C633.759 85.5714 633.749 85.5749 633.738 85.5749C633.714 85.5749 633.686 85.5784 633.661 85.5855C633.623 85.596 633.592 85.6065 633.564 85.6171C633.557 85.6206 633.55 85.6241 633.539 85.6276C633.518 85.6381 633.497 85.6487 633.476 85.6627C633.466 85.6698 633.455 85.6768 633.448 85.6873C633.431 85.7014 633.417 85.7119 633.403 85.7295C633.393 85.74 633.386 85.7505 633.375 85.7611C633.365 85.7751 633.351 85.7892 633.34 85.8067C633.33 85.8208 633.323 85.8348 633.316 85.8489C633.309 85.8629 633.298 85.877 633.291 85.8945C633.284 85.9121 633.277 85.9332 633.274 85.9507C633.27 85.9613 633.267 85.9718 633.263 85.9859L617.066 160.03C617.031 160.184 617.069 160.349 617.171 160.472C617.268 160.595 617.419 160.669 617.579 160.669H630.592V183.731C630.592 184.023 630.826 184.258 631.116 184.258H636.441C636.731 184.258 636.965 184.023 636.965 183.731V160.669H649.978C650.135 160.669 650.285 160.595 650.386 160.472C650.477 160.349 650.516 160.184 650.481 160.03ZM635.911 183.204H631.632V160.669H633.77H635.907V183.204H635.911ZM636.434 159.615H633.773H631.112H618.229L633.777 88.5499L649.325 159.615H636.434Z" fill="#D1D1D1"/>
<path d="M418.578 125.036C418.455 125.036 418.33 124.994 418.228 124.903C418.012 124.71 417.994 124.376 418.186 124.158L424.081 117.509C424.273 117.291 424.605 117.27 424.822 117.467C425.038 117.66 425.056 117.994 424.864 118.212L418.969 124.861C418.864 124.976 418.721 125.036 418.578 125.036Z" fill="#D1D1D1"/>
<path d="M418.389 119.827C418.246 119.827 418.103 119.768 417.998 119.652L412.389 113.326C412.197 113.108 412.214 112.775 412.431 112.581C412.647 112.388 412.979 112.406 413.171 112.624L418.78 118.949C418.972 119.167 418.955 119.501 418.738 119.694C418.637 119.785 418.511 119.827 418.389 119.827Z" fill="#D1D1D1"/>
<path d="M428.422 144.484C428.16 144.484 427.933 144.284 427.902 144.017L427.336 138.949C427.305 138.661 427.511 138.397 427.797 138.366C428.084 138.334 428.346 138.541 428.377 138.829L428.943 143.898C428.974 144.186 428.768 144.449 428.482 144.481C428.461 144.481 428.443 144.484 428.422 144.484Z" fill="#D1D1D1"/>
<path d="M433.361 143.146C433.333 143.146 433.305 143.142 433.28 143.139L429.767 142.584C429.481 142.538 429.285 142.268 429.33 141.983C429.376 141.695 429.645 141.495 429.928 141.544L433.441 142.099C433.727 142.145 433.923 142.415 433.878 142.7C433.836 142.963 433.612 143.146 433.361 143.146Z" fill="#D1D1D1"/>
<path d="M404.807 130.203C404.776 130.203 404.748 130.199 404.716 130.196L398.521 129.093C398.234 129.044 398.046 128.77 398.098 128.482C398.147 128.194 398.42 128.001 398.706 128.057L404.901 129.16C405.188 129.209 405.376 129.483 405.324 129.771C405.279 130.024 405.055 130.203 404.807 130.203Z" fill="#D1D1D1"/>
<path d="M403.043 127.439C402.998 127.439 402.953 127.432 402.907 127.421C402.628 127.347 402.46 127.056 402.537 126.775L403.543 122.985C403.616 122.704 403.903 122.535 404.185 122.613C404.465 122.686 404.632 122.978 404.556 123.259L403.55 127.049C403.487 127.284 403.277 127.439 403.043 127.439Z" fill="#D1D1D1"/>
<path d="M555.764 119.82C550.997 119.82 547.121 123.719 547.121 128.513C547.121 130.512 547.795 132.352 548.926 133.821L537.028 145.787V127.344L549.66 114.64C551.224 116.21 553.383 117.183 555.764 117.183C560.531 117.183 564.408 113.284 564.408 108.49C564.408 103.695 560.531 99.7965 555.764 99.7965C550.997 99.7965 547.121 103.695 547.121 108.49C547.121 110.509 547.812 112.371 548.965 113.849L537.028 125.855V93.9554C545.385 93.6744 552.097 86.7551 552.097 78.2868C552.097 69.6394 545.102 62.6042 536.504 62.6042C527.906 62.6042 520.911 69.6394 520.911 78.2868C520.911 86.7586 527.623 93.678 535.98 93.9554V115.932L524.169 104.053C525.772 102.473 526.767 100.278 526.767 97.8471C526.767 93.0528 522.891 89.154 518.124 89.154C513.357 89.154 509.48 93.0528 509.48 97.8471C509.48 102.641 513.357 106.54 518.124 106.54C520.097 106.54 521.916 105.869 523.376 104.745L535.98 117.421V136.602L524.316 124.871C526.268 123.277 527.518 120.842 527.518 118.12C527.518 113.326 523.642 109.427 518.875 109.427C514.107 109.427 510.231 113.326 510.231 118.12C510.231 122.915 514.107 126.813 518.875 126.813C520.554 126.813 522.122 126.329 523.453 125.489L535.984 138.092V183.829C535.984 184.121 536.218 184.356 536.507 184.356C536.797 184.356 537.031 184.121 537.031 183.829V147.276L549.621 134.614C551.189 136.213 553.365 137.207 555.771 137.207C560.538 137.207 564.415 133.308 564.415 128.513C564.408 123.719 560.531 119.82 555.764 119.82ZM548.168 108.486C548.168 104.275 551.577 100.847 555.764 100.847C559.952 100.847 563.36 104.275 563.36 108.486C563.36 112.697 559.952 116.125 555.764 116.125C553.672 116.125 551.776 115.272 550.4 113.892L554.36 109.909C554.566 109.701 554.566 109.368 554.36 109.164C554.154 108.957 553.823 108.957 553.62 109.164L549.709 113.098C548.745 111.812 548.168 110.218 548.168 108.486ZM518.124 105.486C513.936 105.486 510.528 102.058 510.528 97.8471C510.528 93.6358 513.936 90.2077 518.124 90.2077C522.311 90.2077 525.72 93.6358 525.72 97.8471C525.72 99.9861 524.839 101.921 523.429 103.309L518.494 98.3459C518.288 98.1386 517.956 98.1386 517.753 98.3459C517.547 98.5531 517.547 98.8868 517.753 99.0905L522.629 103.994C521.365 104.928 519.807 105.486 518.124 105.486ZM518.875 125.76C514.687 125.76 511.279 122.332 511.279 118.12C511.279 113.909 514.687 110.481 518.875 110.481C523.062 110.481 526.47 113.909 526.47 118.12C526.47 120.551 525.335 122.718 523.568 124.12L519 119.525C518.794 119.318 518.462 119.318 518.26 119.525C518.054 119.733 518.054 120.066 518.26 120.27L522.688 124.724C521.567 125.38 520.264 125.76 518.875 125.76ZM521.958 78.2833C521.958 70.2155 528.486 63.6544 536.504 63.6544C544.522 63.6544 551.05 70.219 551.05 78.2833C551.05 86.1721 544.805 92.6207 537.028 92.8982V81.9818C537.028 81.6903 536.794 81.455 536.504 81.455C536.214 81.455 535.98 81.6903 535.98 81.9818V92.8982C528.199 92.6207 521.958 86.1756 521.958 78.2833ZM555.764 136.153C553.648 136.153 551.734 135.278 550.355 133.87L553.826 130.379C554.032 130.171 554.032 129.838 553.826 129.634C553.62 129.427 553.288 129.427 553.086 129.634L549.67 133.069C548.727 131.798 548.168 130.217 548.168 128.513C548.168 124.302 551.577 120.874 555.764 120.874C559.952 120.874 563.36 124.302 563.36 128.513C563.36 132.725 559.952 136.153 555.764 136.153Z" fill="#D1D1D1"/>
<path d="M300.494 87.2293L314.048 73.5978C315.766 75.0273 317.97 75.8914 320.369 75.8914C325.838 75.8914 330.287 71.4166 330.287 65.9163C330.287 60.416 325.838 55.9412 320.369 55.9412C314.9 55.9412 310.451 60.416 310.451 65.9163C310.451 68.6243 311.53 71.083 313.279 72.8848L300.494 85.7435V63.3172L314.582 49.1483C316.342 50.7535 318.679 51.7334 321.235 51.7334C326.704 51.7334 331.153 47.2587 331.153 41.7584C331.153 36.258 326.704 31.7833 321.235 31.7833C315.766 31.7833 311.317 36.258 311.317 41.7584C311.317 44.3083 312.274 46.637 313.845 48.4037L300.494 61.8314V36.1245C310.157 35.8435 317.931 27.8565 317.931 18.0746C317.931 8.103 309.874 0 299.97 0C290.066 0 282.009 8.103 282.009 18.064C282.009 27.8494 289.783 35.833 299.446 36.114V73.3028L285.285 59.0602C286.73 57.3251 287.604 55.0947 287.604 52.6607C287.604 47.1603 283.154 42.6856 277.685 42.6856C272.216 42.6856 267.767 47.1603 267.767 52.6607C267.767 58.161 272.216 62.6358 277.685 62.6358C280.357 62.6358 282.784 61.5645 284.572 59.8294L299.45 74.792V96.3684L285.176 82.0134C286.689 80.2607 287.607 77.9777 287.607 75.4804C287.607 69.9801 283.158 65.5054 277.689 65.5054C272.22 65.5054 267.77 69.9801 267.77 75.4804C267.77 80.9808 272.22 85.4555 277.689 85.4555C280.301 85.4555 282.676 84.4334 284.45 82.7686L299.45 97.8541V118.693L285.337 104.499C286.755 102.775 287.607 100.562 287.607 98.1562C287.607 92.6558 283.158 88.1811 277.689 88.1811C272.22 88.1811 267.77 92.6558 267.77 98.1562C267.77 103.657 272.22 108.131 277.689 108.131C280.388 108.131 282.836 107.039 284.628 105.276L299.45 120.182V183.675C299.45 183.966 299.684 184.202 299.973 184.202C300.263 184.202 300.497 183.966 300.497 183.675V112.423L314.247 98.5952C315.934 99.9334 318.06 100.734 320.372 100.734C325.841 100.734 330.291 96.2595 330.291 90.7592C330.291 85.2588 325.841 80.7841 320.372 80.7841C314.903 80.7841 310.454 85.2588 310.454 90.7592C310.454 93.5585 311.607 96.0874 313.457 97.9033L300.497 110.938V87.2293H300.494ZM311.498 65.9128C311.498 60.992 315.48 56.9914 320.369 56.9914C325.258 56.9914 329.239 60.9955 329.239 65.9128C329.239 70.8336 325.258 74.8342 320.369 74.8342C318.259 74.8342 316.318 74.0895 314.795 72.8462L321.022 66.5837C321.228 66.3764 321.228 66.0427 321.022 65.839C320.816 65.6318 320.484 65.6318 320.282 65.839L314.023 72.1332C312.462 70.528 311.498 68.3328 311.498 65.9128ZM312.368 41.7513C312.368 36.8305 316.349 32.83 321.238 32.83C326.128 32.83 330.109 36.834 330.109 41.7513C330.109 46.6721 326.128 50.6727 321.238 50.6727C318.968 50.6727 316.897 49.8122 315.326 48.3967L321.609 42.078C321.815 41.8707 321.815 41.5371 321.609 41.3334C321.403 41.1261 321.071 41.1261 320.868 41.3334L314.589 47.6486C313.206 46.075 312.368 44.0098 312.368 41.7513ZM277.685 61.5821C272.792 61.5821 268.815 57.578 268.815 52.6607C268.815 47.7399 272.796 43.7393 277.685 43.7393C282.578 43.7393 286.556 47.7434 286.556 52.6607C286.556 54.8032 285.798 56.7737 284.541 58.3156L280.102 53.8514C279.896 53.6442 279.564 53.6442 279.362 53.8514C279.156 54.0586 279.156 54.3923 279.362 54.596L283.825 59.0848C282.236 60.6302 280.067 61.5821 277.685 61.5821ZM277.685 84.4018C272.792 84.4018 268.815 80.3977 268.815 75.4804C268.815 70.5596 272.796 66.5591 277.685 66.5591C282.578 66.5591 286.556 70.5631 286.556 75.4804C286.556 77.6862 285.753 79.7058 284.429 81.2653L280.724 77.5387C280.518 77.3315 280.186 77.3315 279.983 77.5387C279.777 77.7459 279.777 78.0796 279.983 78.2833L283.706 82.0275C282.121 83.4991 280.008 84.4018 277.685 84.4018ZM277.685 107.081C272.792 107.081 268.815 103.077 268.815 98.1597C268.815 93.2389 272.796 89.2383 277.685 89.2383C282.578 89.2383 286.556 93.2424 286.556 98.1597C286.556 100.278 285.819 102.223 284.59 103.755L280.724 99.8667C280.518 99.6595 280.186 99.6595 279.983 99.8667C279.777 100.074 279.777 100.408 279.983 100.611L283.884 104.535C282.285 106.108 280.095 107.081 277.685 107.081ZM311.498 90.7557C311.498 85.8349 315.48 81.8343 320.369 81.8343C325.258 81.8343 329.239 85.8384 329.239 90.7557C329.239 95.6765 325.258 99.677 320.369 99.677C318.347 99.677 316.482 98.9921 314.991 97.8436L321.022 91.7777C321.228 91.5705 321.228 91.2368 321.022 91.0331C320.816 90.8259 320.484 90.8259 320.282 91.0331L314.198 97.1516C312.532 95.5289 311.498 93.2635 311.498 90.7557ZM283.056 18.064C283.056 8.68605 290.645 1.05371 299.97 1.05371C309.295 1.05371 316.883 8.68605 316.883 18.064C316.883 27.2664 309.577 34.7793 300.494 35.0603V22.3456C300.494 22.0541 300.26 21.8187 299.97 21.8187C299.68 21.8187 299.446 22.0541 299.446 22.3456V35.0603C290.363 34.7793 283.056 27.2664 283.056 18.064Z" fill="#D1D1D1"/>
<path d="M408.617 168.684C408.516 168.684 408.415 168.695 408.31 168.698C408.823 167.581 409.141 166.299 409.141 165.21C409.141 160.999 405.732 157.571 401.545 157.571C400.183 157.571 398.877 157.933 397.721 158.614C397.302 156.63 395.549 155.137 393.453 155.137C392.807 155.137 392.175 155.285 391.602 155.555C391.658 155.112 391.69 154.663 391.69 154.213C391.69 148.404 386.989 143.676 381.213 143.676C377.79 143.676 374.678 145.313 372.73 148.035C372.269 144.755 369.464 142.219 366.077 142.219C364.177 142.219 362.403 143.016 361.139 144.389C360.643 142.514 358.945 141.123 356.927 141.123C354.859 141.123 353.124 142.58 352.68 144.526C351.437 143.336 349.767 142.651 348.032 142.651C345.772 142.651 343.527 143.985 342.259 146.022C340.949 145.074 339.374 144.558 337.75 144.558C333.493 144.558 330.029 148.042 330.029 152.324C330.029 153.89 330.385 155.281 331.066 156.447C330.018 156.103 328.922 155.917 327.804 155.917C322.031 155.917 317.334 160.641 317.334 166.447C317.334 170.005 319.031 173.243 321.787 175.189C319.691 175.646 318.113 177.525 318.113 179.769C318.113 182.344 320.166 184.36 322.785 184.36H408.607C412.871 184.36 416.339 180.812 416.339 176.454C416.339 172.168 412.874 168.684 408.617 168.684ZM408.607 183.303H322.785C320.753 183.303 319.16 181.75 319.16 179.766C319.16 177.76 320.781 176.13 322.775 176.13C323.131 176.13 323.48 176.183 323.816 176.285C324.092 176.369 324.385 176.211 324.469 175.934C324.553 175.656 324.395 175.361 324.12 175.277C324.095 175.27 324.074 175.266 324.05 175.259C320.606 173.781 318.382 170.324 318.382 166.447C318.382 161.22 322.607 156.97 327.804 156.97C329.592 156.97 331.331 157.476 332.833 158.432C332.868 158.453 332.903 158.47 332.941 158.484C332.948 158.488 332.955 158.488 332.962 158.491C333.008 158.505 333.053 158.512 333.098 158.512C333.154 158.512 333.193 158.509 333.228 158.502C333.266 158.491 333.301 158.481 333.332 158.467C333.343 158.463 333.353 158.456 333.364 158.449C333.385 158.435 333.409 158.425 333.43 158.407C333.441 158.4 333.451 158.389 333.462 158.379C333.479 158.361 333.497 158.344 333.514 158.326C333.521 158.319 333.524 158.316 333.531 158.309C333.535 158.302 333.538 158.295 333.545 158.288C333.549 158.281 333.556 158.277 333.559 158.27C333.563 158.263 333.566 158.252 333.573 158.245C333.584 158.228 333.591 158.214 333.598 158.196C333.605 158.179 333.612 158.165 333.615 158.147C333.619 158.13 333.626 158.116 333.629 158.098C333.633 158.08 333.636 158.063 333.636 158.045C333.64 158.028 333.64 158.014 333.64 157.996C333.64 157.979 333.64 157.961 333.636 157.943C333.636 157.926 333.633 157.912 333.629 157.894C333.626 157.877 333.622 157.863 333.619 157.845C333.615 157.827 333.608 157.813 333.601 157.796C333.594 157.782 333.587 157.764 333.58 157.75C333.573 157.736 333.563 157.719 333.556 157.705C333.545 157.691 333.538 157.676 333.528 157.662C333.518 157.648 333.507 157.634 333.493 157.624C333.483 157.61 333.469 157.599 333.455 157.589C333.448 157.582 333.441 157.575 333.434 157.568C331.89 156.377 331.076 154.561 331.076 152.32C331.076 148.618 334.069 145.608 337.75 145.608C339.336 145.608 340.869 146.177 342.074 147.206C342.095 147.22 342.109 147.231 342.123 147.241C342.14 147.252 342.154 147.262 342.172 147.273C342.182 147.28 342.189 147.28 342.196 147.283C342.224 147.297 342.252 147.308 342.28 147.315C342.29 147.319 342.304 147.319 342.315 147.322C342.343 147.326 342.367 147.329 342.395 147.333C342.402 147.333 342.409 147.336 342.416 147.336C342.514 147.333 342.598 147.308 342.674 147.266C342.685 147.262 342.692 147.255 342.702 147.248C342.73 147.231 342.758 147.21 342.783 147.185C342.79 147.178 342.8 147.171 342.807 147.16C342.846 147.118 342.863 147.087 342.884 147.052C343.897 145.046 345.968 143.704 348.042 143.704C349.834 143.704 351.542 144.568 352.61 146.019C352.781 146.254 353.11 146.3 353.344 146.128C353.462 146.04 353.532 145.914 353.55 145.777C353.595 145.699 353.623 145.608 353.623 145.51C353.623 143.673 355.111 142.176 356.937 142.176C358.764 142.176 360.252 143.673 360.252 145.51C360.252 145.692 360.346 145.854 360.489 145.949C360.52 145.98 360.552 146.012 360.59 146.037C360.831 146.195 361.156 146.124 361.313 145.882C362.368 144.245 364.149 143.272 366.084 143.272C369.216 143.272 371.766 145.836 371.766 148.987C371.766 149.18 371.755 149.38 371.738 149.573C371.731 149.658 371.741 149.735 371.769 149.809C371.773 149.998 371.878 150.181 372.059 150.269C372.318 150.395 372.632 150.29 372.761 150.03C374.361 146.764 377.605 144.733 381.223 144.733C386.423 144.733 390.652 148.987 390.652 154.217C390.652 154.93 390.572 155.643 390.419 156.331C390.408 156.37 390.408 156.412 390.408 156.451C390.321 156.637 390.349 156.869 390.495 157.03C390.691 157.244 391.023 157.258 391.236 157.065C391.847 156.503 392.64 156.198 393.467 156.198C395.294 156.198 396.782 157.694 396.782 159.531C396.785 159.566 396.785 159.591 396.789 159.612C396.789 159.622 396.792 159.633 396.792 159.643C396.799 159.668 396.806 159.696 396.817 159.721C396.82 159.728 396.82 159.735 396.823 159.738C396.834 159.766 396.848 159.791 396.865 159.815C396.876 159.833 396.879 159.84 396.886 159.851C396.9 159.868 396.918 159.886 396.932 159.9C397.117 160.086 397.407 160.114 397.62 159.952C398.762 159.088 400.124 158.628 401.559 158.628C405.17 158.628 408.107 161.582 408.107 165.214C408.107 166.408 407.646 167.943 406.958 169.039C406.951 169.049 406.948 169.056 406.944 169.067C406.934 169.085 406.927 169.102 406.916 169.12C406.909 169.134 406.906 169.151 406.902 169.165C406.895 169.183 406.892 169.201 406.888 169.218C406.885 169.236 406.885 169.25 406.881 169.267C406.881 169.285 406.878 169.302 406.878 169.32C406.878 169.337 406.881 169.355 406.881 169.376C406.881 169.387 406.881 169.401 406.885 169.411C406.892 169.443 406.899 169.46 406.902 169.481C406.906 169.496 406.909 169.51 406.916 169.524C406.923 169.541 406.934 169.559 406.944 169.576C406.951 169.587 406.955 169.601 406.965 169.611C406.979 169.629 406.993 169.647 407.007 169.664C407.014 169.671 407.021 169.682 407.028 169.689C407.042 169.703 407.06 169.717 407.077 169.731C407.088 169.738 407.095 169.745 407.105 169.752C407.108 169.755 407.115 169.759 407.119 169.762C407.126 169.766 407.136 169.769 407.143 169.773C407.171 169.791 407.199 169.801 407.231 169.812C407.245 169.815 407.255 169.822 407.269 169.826C407.308 169.836 407.349 169.843 407.391 169.843C407.405 169.843 407.412 169.843 407.423 169.84C407.444 169.84 407.465 169.84 407.489 169.836C407.863 169.773 408.247 169.738 408.628 169.738C412.309 169.738 415.302 172.748 415.302 176.45C415.291 180.166 412.228 183.303 408.607 183.303Z" fill="#D1D1D1"/>
<path d="M109.507 166.011C103.113 166.011 97.9125 171.241 97.9125 177.672C97.9125 179.85 98.5132 181.975 99.6517 183.819C99.746 183.973 99.9136 184.068 100.092 184.068L118.835 184.198C119.017 184.198 119.184 184.107 119.279 183.956C120.473 182.084 121.102 179.91 121.102 177.676C121.105 171.241 115.902 166.011 109.507 166.011ZM118.549 183.141L100.396 183.015C99.4561 181.399 98.9637 179.558 98.9637 177.672C98.9637 171.824 103.696 167.065 109.511 167.065C115.325 167.065 120.058 171.824 120.058 177.672C120.058 179.611 119.537 181.494 118.549 183.141Z" fill="#D1D1D1"/>
<path d="M321.727 170.598C326.351 170.598 330.116 174.381 330.116 179.035C330.116 180.556 329.711 182.035 328.946 183.334L314.449 183.232C313.723 181.957 313.339 180.514 313.339 179.035C313.339 174.381 317.103 170.598 321.727 170.598Z" fill="white"/>
<path d="M329.232 184.388L314.149 184.283C313.967 184.283 313.803 184.188 313.705 184.033C312.78 182.537 312.291 180.809 312.291 179.035C312.291 173.802 316.524 169.545 321.727 169.545C326.931 169.545 331.164 173.802 331.164 179.035C331.164 180.855 330.65 182.621 329.679 184.146C329.582 184.297 329.414 184.388 329.236 184.388C329.236 184.388 329.236 184.388 329.232 184.388ZM314.449 183.232L328.946 183.334C329.711 182.035 330.116 180.556 330.116 179.035C330.116 174.381 326.351 170.598 321.727 170.598C317.103 170.598 313.339 174.381 313.339 179.035C313.339 180.514 313.723 181.957 314.449 183.232Z" fill="#D1D1D1"/>
<path d="M128.052 34.3649C124.884 34.3649 121.975 36.0403 120.361 38.7623C119.492 38.39 118.57 38.2004 117.613 38.2004C114.795 38.2004 112.249 39.9074 111.142 42.4854C110.296 41.9515 109.333 41.6741 108.323 41.6741C105.753 41.6741 103.528 43.5672 103.085 46.0996C102.543 45.7519 101.911 45.5622 101.262 45.5622C99.3933 45.5622 97.8707 47.0936 97.8707 48.9727C97.8707 50.8518 99.3933 52.3832 101.262 52.3832H127.814C127.856 52.3832 127.894 52.3762 127.933 52.3692C127.971 52.3797 128.01 52.3832 128.052 52.3832C132.99 52.3832 137.006 48.344 137.006 43.3776C137.006 38.4041 132.99 34.3649 128.052 34.3649ZM128.052 51.3225C128.01 51.3225 127.971 51.3295 127.933 51.3366C127.894 51.326 127.856 51.3225 127.814 51.3225H101.262C99.9696 51.3225 98.9184 50.2653 98.9184 48.9657C98.9184 47.6661 99.9696 46.6089 101.262 46.6089C101.831 46.6089 102.379 46.8162 102.805 47.192C102.889 47.2657 102.987 47.3079 103.092 47.3184C103.186 47.4554 103.343 47.5467 103.525 47.5467C103.815 47.5467 104.049 47.3114 104.049 47.0199C104.049 46.8056 104.063 46.5914 104.094 46.3841C104.401 44.2943 106.221 42.7208 108.323 42.7208C109.252 42.7208 110.139 43.0158 110.88 43.5743C111.065 43.7112 111.309 43.7077 111.487 43.5848C111.697 43.5778 111.889 43.4478 111.966 43.2371C112.821 40.8487 115.091 39.247 117.613 39.247C118.497 39.247 119.345 39.4367 120.141 39.8055C120.229 39.8477 120.32 39.8582 120.41 39.8512C120.658 39.9565 120.948 39.8617 121.077 39.6193C122.457 37.0272 125.132 35.4151 128.055 35.4151C132.414 35.4151 135.962 38.9836 135.962 43.367C135.958 47.7575 132.414 51.3225 128.052 51.3225Z" fill="#D1D1D1"/>
<path d="M243.069 19.4971H225.045C224.755 19.4971 224.521 19.2617 224.521 18.9702C224.521 18.6787 224.755 18.4434 225.045 18.4434H243.069C243.359 18.4434 243.593 18.6787 243.593 18.9702C243.593 19.2617 243.359 19.4971 243.069 19.4971Z" fill="#D1D1D1"/>
<path d="M251.028 26.5499H234.059C233.769 26.5499 233.535 26.3145 233.535 26.023C233.535 25.7315 233.769 25.4962 234.059 25.4962H251.028C251.318 25.4962 251.552 25.7315 251.552 26.023C251.552 26.3145 251.318 26.5499 251.028 26.5499Z" fill="#D1D1D1"/>
<path d="M602.373 80.338H595.755C595.466 80.338 595.232 80.1027 595.232 79.8112C595.232 79.5197 595.466 79.2843 595.755 79.2843H602.373C602.663 79.2843 602.897 79.5197 602.897 79.8112C602.897 80.1027 602.663 80.338 602.373 80.338Z" fill="#D1D1D1"/>
<path d="M508.129 7.30218H501.511C501.221 7.30218 500.987 7.06685 500.987 6.77533C500.987 6.4838 501.221 6.24847 501.511 6.24847H508.129C508.418 6.24847 508.652 6.4838 508.652 6.77533C508.652 7.06685 508.418 7.30218 508.129 7.30218Z" fill="#D1D1D1"/>
<path d="M568.417 53.184H564.073C563.783 53.184 563.549 52.9487 563.549 52.6572C563.549 52.3656 563.783 52.1303 564.073 52.1303H568.417C568.707 52.1303 568.941 52.3656 568.941 52.6572C568.941 52.9487 568.707 53.184 568.417 53.184Z" fill="#D1D1D1"/>
<path d="M380.207 81.8308H375.862C375.573 81.8308 375.339 81.5954 375.339 81.3039C375.339 81.0124 375.573 80.7771 375.862 80.7771H380.207C380.497 80.7771 380.731 81.0124 380.731 81.3039C380.731 81.5954 380.493 81.8308 380.207 81.8308Z" fill="#D1D1D1"/>
<path d="M661.646 96.5792H657.301C657.011 96.5792 656.777 96.3438 656.777 96.0523C656.777 95.7608 657.011 95.5255 657.301 95.5255H661.646C661.936 95.5255 662.17 95.7608 662.17 96.0523C662.17 96.3438 661.936 96.5792 661.646 96.5792Z" fill="#D1D1D1"/>
<path d="M248.531 120.495H244.187C243.897 120.495 243.663 120.259 243.663 119.968C243.663 119.676 243.897 119.441 244.187 119.441H248.531C248.821 119.441 249.055 119.676 249.055 119.968C249.055 120.259 248.821 120.495 248.531 120.495Z" fill="#D1D1D1"/>
<path d="M625.077 26.5499H618.372C618.082 26.5499 617.848 26.3145 617.848 26.023C617.848 25.7315 618.082 25.4962 618.372 25.4962H625.077C625.367 25.4962 625.601 25.7315 625.601 26.023C625.601 26.3145 625.367 26.5499 625.077 26.5499Z" fill="#D1D1D1"/>
<path d="M360.863 7.30218H353.668C353.379 7.30218 353.145 7.06685 353.145 6.77533C353.145 6.4838 353.379 6.24847 353.668 6.24847H360.863C361.153 6.24847 361.387 6.4838 361.387 6.77533C361.387 7.06685 361.153 7.30218 360.863 7.30218Z" fill="#D1D1D1"/>
<path d="M439.678 70.8828H432.484C432.194 70.8828 431.96 70.6474 431.96 70.3559C431.96 70.0644 432.194 69.829 432.484 69.829H439.678C439.968 69.829 440.202 70.0644 440.202 70.3559C440.202 70.6474 439.968 70.8828 439.678 70.8828Z" fill="#D1D1D1"/>
<path d="M168.664 14.3269H160.754C160.464 14.3269 160.23 14.0915 160.23 13.8C160.23 13.5085 160.464 13.2732 160.754 13.2732H168.664C168.954 13.2732 169.188 13.5085 169.188 13.8C169.188 14.0915 168.954 14.3269 168.664 14.3269Z" fill="#D1D1D1"/>
<path d="M672.025 27.723H664.115C663.825 27.723 663.591 27.4876 663.591 27.1961C663.591 26.9046 663.825 26.6693 664.115 26.6693H672.025C672.315 26.6693 672.549 26.9046 672.549 27.1961C672.549 27.4876 672.315 27.723 672.025 27.723Z" fill="#D1D1D1"/>
<path d="M236.434 61.7541H230.496C230.207 61.7541 229.973 61.5188 229.973 61.2273C229.973 60.9358 230.207 60.7004 230.496 60.7004H236.434C236.723 60.7004 236.957 60.9358 236.957 61.2273C236.957 61.5188 236.723 61.7541 236.434 61.7541Z" fill="#D1D1D1"/>
<path d="M226.948 108.827C225.405 108.827 224.147 107.562 224.147 106.01C224.147 104.457 225.405 103.193 226.948 103.193C228.492 103.193 229.749 104.457 229.749 106.01C229.749 107.562 228.492 108.827 226.948 108.827ZM226.948 104.25C225.981 104.25 225.195 105.04 225.195 106.013C225.195 106.986 225.981 107.777 226.948 107.777C227.916 107.777 228.701 106.986 228.701 106.013C228.701 105.04 227.912 104.25 226.948 104.25Z" fill="#D1D1D1"/>
<path d="M491.316 73.1728C489.773 73.1728 488.515 71.9084 488.515 70.3559C488.515 68.8034 489.773 67.539 491.316 67.539C492.86 67.539 494.117 68.8034 494.117 70.3559C494.117 71.9084 492.86 73.1728 491.316 73.1728ZM491.316 68.5927C490.349 68.5927 489.563 69.383 489.563 70.3559C489.563 71.3288 490.349 72.1191 491.316 72.1191C492.284 72.1191 493.069 71.3288 493.069 70.3559C493.069 69.383 492.284 68.5927 491.316 68.5927Z" fill="#D1D1D1"/>
<path d="M639.42 13.8C637.877 13.8 636.619 12.5356 636.619 10.9831C636.619 9.43065 637.877 8.1662 639.42 8.1662C640.964 8.1662 642.221 9.43065 642.221 10.9831C642.218 12.5356 640.964 13.8 639.42 13.8ZM639.42 9.22342C638.453 9.22342 637.667 10.0137 637.667 10.9866C637.667 11.9595 638.453 12.7498 639.42 12.7498C640.388 12.7498 641.173 11.9595 641.173 10.9866C641.173 10.0137 640.384 9.22342 639.42 9.22342Z" fill="#D1D1D1"/>
<path d="M510.556 41.948H471.7C476.732 39.8547 480.284 34.8671 480.284 29.0577C480.284 21.3691 474.064 15.1136 466.419 15.1136C461.422 15.1136 456.85 17.8041 454.378 22.1524C452.967 21.5096 451.462 21.1795 449.9 21.1795C445.437 21.1795 441.418 23.9578 439.801 28.1199C438.442 27.1751 436.86 26.6728 435.198 26.6728C431.202 26.6728 427.752 29.6653 427.169 33.6308C427.155 33.7221 427.148 33.8134 427.137 33.9047C426.25 33.2058 425.157 32.8229 424.026 32.8229C421.235 32.8229 418.965 35.106 418.965 37.9123C418.965 39.5561 419.747 41.0172 420.956 41.948H384.076C383.787 41.948 383.553 42.1833 383.553 42.4749C383.553 42.7664 383.787 43.0017 384.076 43.0017H424.022C424.312 43.0017 424.546 42.7664 424.546 42.4749C424.546 42.1833 424.312 41.948 424.022 41.948C421.808 41.948 420.009 40.1356 420.009 37.9123C420.009 35.6855 421.811 33.8766 424.022 33.8766C424.996 33.8766 425.936 34.2314 426.666 34.8777C426.792 34.9865 426.952 35.0252 427.102 34.9971C427.169 35.2113 427.364 35.3659 427.598 35.3659C427.888 35.3659 428.122 35.1305 428.122 34.839C428.122 34.4878 428.147 34.133 428.199 33.7888C428.709 30.3327 431.716 27.73 435.194 27.73C436.734 27.73 438.194 28.2182 439.423 29.142C439.636 29.3 439.926 29.2719 440.108 29.0893C440.132 29.0928 440.157 29.1033 440.178 29.1033C440.391 29.1033 440.593 28.9699 440.67 28.7556C442.067 24.8569 445.773 22.2367 449.897 22.2367C451.339 22.2367 452.729 22.5458 454.025 23.1499C454.137 23.2026 454.259 23.2096 454.371 23.1815C454.381 23.1885 454.388 23.1956 454.399 23.1991C454.654 23.3361 454.971 23.2412 455.108 22.9848C457.346 18.7805 461.68 16.1674 466.416 16.1674C473.484 16.1674 479.233 21.9522 479.233 29.0577C479.233 36.1667 473.481 41.948 466.416 41.948H454.248C453.959 41.948 453.725 42.1833 453.725 42.4749C453.725 42.7664 453.959 43.0017 454.248 43.0017H510.556C510.846 43.0017 511.08 42.7664 511.08 42.4749C511.08 42.1833 510.846 41.948 510.556 41.948Z" fill="#D1D1D1"/>
<path d="M446.398 41.948H442.252C441.962 41.948 441.728 42.1833 441.728 42.4749C441.728 42.7664 441.962 43.0017 442.252 43.0017H446.398C446.687 43.0017 446.921 42.7664 446.921 42.4749C446.921 42.1833 446.687 41.948 446.398 41.948Z" fill="#D1D1D1"/>
<path d="M433.671 50.1037H398.643C398.353 50.1037 398.119 50.339 398.119 50.6306C398.119 50.9221 398.353 51.1574 398.643 51.1574H433.671C433.961 51.1574 434.195 50.9221 434.195 50.6306C434.195 50.339 433.961 50.1037 433.671 50.1037Z" fill="#D1D1D1"/>
<path d="M482.093 50.1037H467.202C466.912 50.1037 466.678 50.339 466.678 50.6306C466.678 50.9221 466.912 51.1574 467.202 51.1574H482.093C482.383 51.1574 482.617 50.9221 482.617 50.6306C482.617 50.339 482.383 50.1037 482.093 50.1037Z" fill="#D1D1D1"/>
<path d="M655.01 68.3328H631.032C630.742 68.3328 630.508 68.0975 630.508 67.8059C630.508 67.5144 630.742 67.2791 631.032 67.2791H655.01C655.3 67.2791 655.534 67.5144 655.534 67.8059C655.534 68.0975 655.3 68.3328 655.01 68.3328Z" fill="#D1D1D1"/>
<path d="M697.194 58.6317H684.454C687.046 57.1881 688.802 54.4098 688.802 51.2276C688.802 46.5632 685.031 42.7699 680.393 42.7699C677.424 42.7699 674.704 44.3364 673.184 46.8758C672.374 46.5351 671.519 46.3525 670.632 46.3525C667.995 46.3525 665.61 47.9401 664.562 50.3425C663.776 49.8543 662.879 49.5979 661.943 49.5979C659.54 49.5979 657.458 51.3541 657.022 53.7144C656.519 53.4018 655.939 53.2332 655.342 53.2332C653.575 53.2332 652.136 54.6803 652.136 56.4575C652.136 57.2935 652.457 58.0521 652.978 58.6282H644.82C644.53 58.6282 644.296 58.8635 644.296 59.155C644.296 59.4465 644.53 59.6819 644.82 59.6819H655.338C655.628 59.6819 655.862 59.4465 655.862 59.155C655.862 58.8635 655.628 58.6282 655.338 58.6282C654.148 58.6282 653.18 57.6553 653.18 56.4575C653.18 55.2598 654.148 54.2869 655.338 54.2869C655.862 54.2869 656.365 54.4766 656.76 54.8243C656.84 54.8945 656.934 54.9367 657.032 54.9507C657.127 55.0807 657.28 55.1685 657.455 55.1685C657.745 55.1685 657.979 54.9332 657.979 54.6417C657.979 54.445 657.993 54.2448 658.021 54.0516C658.307 52.1163 659.99 50.6551 661.943 50.6551C662.805 50.6551 663.626 50.9291 664.314 51.4454C664.495 51.5824 664.736 51.5789 664.918 51.4595C665.121 51.4489 665.309 51.319 665.383 51.1152C666.175 48.8954 668.288 47.4062 670.632 47.4062C671.452 47.4062 672.242 47.5818 672.982 47.926C673.066 47.9647 673.157 47.9787 673.24 47.9717C673.485 48.0736 673.771 47.9752 673.9 47.7364C675.186 45.3234 677.676 43.8236 680.393 43.8236C684.451 43.8236 687.755 47.1463 687.755 51.2276C687.755 55.309 684.451 58.6317 680.393 58.6317H666.112C665.823 58.6317 665.589 58.867 665.589 59.1585C665.589 59.4501 665.823 59.6854 666.112 59.6854H680.393H681.479H697.194C697.484 59.6854 697.718 59.4501 697.718 59.1585C697.718 58.867 697.484 58.6317 697.194 58.6317Z" fill="#D1D1D1"/>
<path d="M280.706 183.32C280.706 183.415 280.706 183.738 280.706 183.833C280.706 184.124 280.472 184.36 280.182 184.36H268.134C267.844 184.36 267.61 184.124 267.61 183.833C267.61 183.738 267.61 183.415 267.61 183.32V180.278C267.61 179.987 267.844 179.752 268.134 179.752H268.979V160.785C268.979 160.771 268.982 160.76 268.982 160.746C268.982 160.729 268.982 160.711 268.986 160.69C268.989 160.672 268.996 160.651 269.003 160.634C269.007 160.623 269.007 160.613 269.01 160.599L272.129 152.141C272.206 151.934 272.401 151.797 272.621 151.797H273.742V102.034C273.742 101.707 273.742 101.391 273.742 101.085C273.746 100.495 273.749 99.9404 273.742 99.4276L274.787 99.4206C274.797 99.9404 274.794 100.499 274.79 101.089C274.79 101.395 274.79 101.711 274.79 102.034V151.797H275.824C276.044 151.797 276.243 151.937 276.316 152.148L279.309 160.606C279.313 160.616 279.313 160.627 279.316 160.637C279.32 160.658 279.327 160.676 279.33 160.694C279.334 160.711 279.334 160.732 279.334 160.75C279.337 160.76 279.337 160.771 279.337 160.785V179.752H280.182C280.472 179.752 280.706 179.987 280.706 180.278V183.32ZM279.658 183.306V180.805H268.657V183.306H279.658ZM278.289 179.752V161.312H270.026V179.752H278.289ZM278.073 160.258L275.454 152.85H272.984L270.253 160.258H278.073Z" fill="#D1D1D1"/>
<path d="M279.658 180.805H268.657V183.306H279.658V180.805Z" fill="white"/>
<path d="M278.289 161.312H270.026V179.752H278.289V161.312Z" fill="white"/>
<path d="M275.454 152.85L278.073 160.258H270.253L272.984 152.85H275.454Z" fill="white"/>
<path d="M274.787 99.4206L273.742 99.4276C273.714 97.7101 273.568 96.4527 272.901 95.7818C272.44 95.3147 271.706 95.0969 270.599 95.0969H259.42C259.518 95.7256 259.507 96.2595 259.493 96.5053C259.5 96.5334 259.504 96.565 259.504 96.5967C259.504 96.8882 259.27 97.1235 258.98 97.1235C258.959 97.1235 257.461 97.1235 257.461 97.1235C257.056 98.8797 254.667 100.19 251.681 100.19C248.695 100.19 246.306 98.8797 245.901 97.1235H244.854C244.581 97.1235 244.358 96.9163 244.33 96.6458C244.323 96.5475 244.11 94.1942 245.409 92.7577C246.048 92.0447 246.928 91.6864 248.021 91.6864H255.792C256.888 91.6864 257.765 92.0447 258.407 92.7577C258.753 93.1405 258.991 93.5901 259.155 94.0432H270.599C271.986 94.0432 272.981 94.3698 273.645 95.0372C274.57 95.9715 274.759 97.4467 274.787 99.4206ZM245.363 96.0698H258.453C258.442 95.413 258.317 94.2223 257.629 93.4601C257.189 92.9754 256.588 92.7401 255.792 92.7401H248.021C247.228 92.7401 246.628 92.9754 246.188 93.4601C245.5 94.2223 245.374 95.413 245.363 96.0698ZM256.368 97.1235H246.994C247.466 98.258 249.422 99.1361 251.681 99.1361C253.941 99.1361 255.896 98.258 256.368 97.1235Z" fill="#D1D1D1"/>
<path d="M460.877 180.805H449.876V183.306H460.877V180.805Z" fill="white"/>
<path d="M459.508 161.312H451.245V179.752H459.508V161.312Z" fill="white"/>
<path d="M473.167 97.1235C473.638 98.258 475.594 99.1361 477.853 99.1361C480.113 99.1361 482.069 98.258 482.54 97.1235H473.167ZM472.073 97.1235H470.554C470.264 97.1235 470.03 96.8882 470.03 96.5967C470.03 96.565 470.034 96.5334 470.037 96.5053C470.027 96.2595 470.016 95.7256 470.114 95.0969H458.935C458.726 95.0969 458.534 95.1039 458.348 95.118L458.258 94.0748C458.474 94.0537 458.698 94.0432 458.935 94.0432H470.38C470.544 93.5901 470.781 93.1405 471.127 92.7577C471.77 92.0447 472.646 91.6864 473.739 91.6864H481.513C482.606 91.6864 483.483 92.0447 484.126 92.7577C485.425 94.1942 485.212 96.5475 485.205 96.6458C485.177 96.9163 484.953 97.1235 484.681 97.1235H483.633C483.228 98.8797 480.839 100.19 477.853 100.19C474.867 100.19 472.479 98.8797 472.073 97.1235ZM471.082 96.0698H484.171C484.16 95.413 484.035 94.2223 483.347 93.4601C482.907 92.9754 482.306 92.7401 481.513 92.7401H473.739C472.947 92.7401 472.346 92.9754 471.906 93.4601C471.218 94.2223 471.092 95.413 471.082 96.0698Z" fill="#D1D1D1"/>
<path d="M460.877 180.805H449.876V183.306H460.877V180.805ZM459.508 161.312H451.245V179.752H459.508V161.312ZM454.081 152.85L451.462 160.258H459.281L456.55 152.85H454.081ZM450.225 160.606L453.218 152.148C453.292 151.937 453.491 151.797 453.711 151.797H454.744V102.034C454.744 101.711 454.744 101.395 454.744 101.089C454.73 98.2615 454.72 96.2208 455.89 95.0371C456.438 94.4857 457.217 94.1661 458.258 94.0748L458.348 95.1179C457.559 95.1882 457.007 95.4024 456.634 95.7818C455.771 96.6528 455.778 98.5109 455.792 101.085C455.792 101.391 455.792 101.707 455.792 102.034V151.797H456.913C457.133 151.797 457.329 151.934 457.406 152.141L460.524 160.599C460.528 160.613 460.528 160.623 460.531 160.634C460.538 160.651 460.545 160.672 460.549 160.69C460.552 160.711 460.552 160.729 460.552 160.746C460.552 160.76 460.556 160.771 460.556 160.785V179.752H461.401C461.691 179.752 461.925 179.987 461.925 180.278C461.925 180.278 461.925 183.738 461.925 183.833C461.925 184.124 461.691 184.36 461.404 184.36H449.345C449.059 184.36 448.828 184.124 448.828 183.833C448.828 183.738 448.828 180.278 448.828 180.278C448.828 179.987 449.062 179.752 449.352 179.752H450.197V160.785C450.197 160.771 450.197 160.76 450.201 160.75C450.201 160.732 450.201 160.711 450.204 160.694C450.208 160.676 450.211 160.658 450.218 160.637C450.222 160.627 450.222 160.616 450.225 160.606Z" fill="#D1D1D1"/>
<path d="M258.495 170.567V173.187H253.584H251.028H198.059H195.503H191.599V170.567H195.503H198.059H251.028H253.584H258.495Z" fill="white"/>
<path d="M260.328 158.969V164.94H189.762V158.969H260.328ZM253.951 161.955C253.951 161.041 253.214 160.3 252.306 160.3C251.398 160.3 250.661 161.041 250.661 161.955C250.661 162.868 251.398 163.609 252.306 163.609C253.214 163.609 253.951 162.868 253.951 161.955ZM198.426 161.955C198.426 161.041 197.689 160.3 196.781 160.3C195.873 160.3 195.136 161.041 195.136 161.955C195.136 162.868 195.873 163.609 196.781 163.609C197.689 163.609 198.426 162.868 198.426 161.955Z" fill="white"/>
<path d="M260.328 148.253V154.224H189.762V148.253H260.328ZM253.951 151.238C253.951 150.325 253.214 149.584 252.306 149.584C251.398 149.584 250.661 150.325 250.661 151.238C250.661 152.152 251.398 152.893 252.306 152.893C253.214 152.893 253.951 152.152 253.951 151.238ZM198.426 151.238C198.426 150.325 197.689 149.584 196.781 149.584C195.873 149.584 195.136 150.325 195.136 151.238C195.136 152.152 195.873 152.893 196.781 152.893C197.689 152.893 198.426 152.152 198.426 151.238Z" fill="white"/>
<path d="M252.903 151.238C252.903 150.905 252.635 150.638 252.306 150.638C251.978 150.638 251.709 150.905 251.709 151.238C251.709 151.568 251.978 151.839 252.306 151.839C252.635 151.839 252.903 151.568 252.903 151.238ZM252.306 149.584C253.214 149.584 253.951 150.325 253.951 151.238C253.951 152.152 253.214 152.893 252.306 152.893C251.398 152.893 250.661 152.152 250.661 151.238C250.661 150.325 251.398 149.584 252.306 149.584Z" fill="#D1D1D1"/>
<path d="M252.306 160.3C253.214 160.3 253.951 161.041 253.951 161.954C253.951 162.868 253.214 163.609 252.306 163.609C251.398 163.609 250.661 162.868 250.661 161.954C250.661 161.041 251.398 160.3 252.306 160.3ZM252.306 162.555C252.635 162.555 252.903 162.285 252.903 161.954C252.903 161.621 252.635 161.354 252.306 161.354C251.978 161.354 251.709 161.621 251.709 161.954C251.709 162.285 251.978 162.555 252.306 162.555Z" fill="#D1D1D1"/>
<path d="M197.378 151.238C197.378 150.905 197.109 150.638 196.781 150.638C196.453 150.638 196.184 150.905 196.184 151.238C196.184 151.568 196.453 151.839 196.781 151.839C197.109 151.839 197.378 151.568 197.378 151.238ZM196.781 149.584C197.689 149.584 198.426 150.325 198.426 151.238C198.426 152.152 197.689 152.893 196.781 152.893C195.873 152.893 195.136 152.152 195.136 151.238C195.136 150.325 195.873 149.584 196.781 149.584Z" fill="#D1D1D1"/>
<path d="M197.378 161.954C197.378 161.621 197.109 161.354 196.781 161.354C196.453 161.354 196.184 161.621 196.184 161.954C196.184 162.285 196.453 162.555 196.781 162.555C197.109 162.555 197.378 162.285 197.378 161.954ZM196.781 160.3C197.689 160.3 198.426 161.041 198.426 161.954C198.426 162.868 197.689 163.609 196.781 163.609C195.873 163.609 195.136 162.868 195.136 161.954C195.136 161.041 195.873 160.3 196.781 160.3Z" fill="#D1D1D1"/>
<path d="M196.027 147.199H197.536V145.264H196.027V147.199ZM196.027 157.915H197.536V155.278H196.027V157.915ZM196.027 169.513H197.536V165.994H196.027V169.513ZM197.536 183.306V174.241H196.027V183.306H197.536ZM198.583 157.915H250.504V155.278H198.583V157.915ZM198.583 169.513H250.504V165.994H198.583V169.513ZM251.028 173.187H253.584H258.495V170.567H253.584H251.028H198.059H195.503H191.599V173.187H195.503H198.059H251.028ZM260.328 158.969H189.762V164.94H260.328V158.969ZM260.328 148.253H189.762V154.224H260.328V148.253ZM251.028 144.21H253.584C253.874 144.21 254.108 144.449 254.108 144.737V147.199H260.852C261.142 147.199 261.376 147.434 261.376 147.726V154.751C261.376 155.042 261.142 155.278 260.852 155.278H254.108V157.915H260.852C261.142 157.915 261.376 158.151 261.376 158.442V165.467C261.376 165.758 261.142 165.994 260.852 165.994H254.108V169.513H259.018C259.308 169.513 259.542 169.748 259.542 170.04V173.714C259.542 174.005 259.308 174.241 259.018 174.241H254.108V183.833C254.108 184.124 253.874 184.36 253.584 184.36H251.028C250.738 184.36 250.504 184.124 250.504 183.833V174.241H198.583V183.833C198.583 184.124 198.349 184.36 198.059 184.36H195.503C195.213 184.36 194.979 184.124 194.979 183.833V174.241H191.075C190.785 174.241 190.551 174.005 190.551 173.714V170.04C190.551 169.748 190.785 169.513 191.075 169.513H194.979V165.994H189.238C188.951 165.994 188.714 165.758 188.714 165.467V158.442C188.714 158.151 188.951 157.915 189.238 157.915H194.979V155.278H189.238C188.951 155.278 188.714 155.042 188.714 154.751V147.726C188.714 147.434 188.951 147.199 189.238 147.199H194.979V144.737C194.979 144.449 195.213 144.21 195.503 144.21H198.059C198.349 144.21 198.583 144.449 198.583 144.737V147.199H250.504V144.737C250.504 144.449 250.738 144.21 251.028 144.21ZM251.552 147.199H253.061V145.264H251.552V147.199ZM251.552 157.915H253.061V155.278H251.552V157.915ZM251.552 169.513H253.061V165.994H251.552V169.513ZM251.552 183.306H253.061V174.241H251.552V183.306Z" fill="#D1D1D1"/>
<path d="M347.372 126.733C347.372 135.907 346.422 143.585 344.62 148.934C342.633 154.835 339.668 157.898 335.815 158.056V143.732L341.211 137.649C341.403 137.431 341.382 137.098 341.169 136.904C340.953 136.711 340.621 136.729 340.429 136.947L335.815 142.148V129.838L341.578 123.34C341.77 123.122 341.753 122.788 341.536 122.595C341.319 122.398 340.988 122.419 340.796 122.637L335.815 128.254V111.243C335.815 110.955 335.581 110.716 335.292 110.716C335.002 110.716 334.768 110.955 334.768 111.243V122.472L331.81 119.135C331.618 118.918 331.286 118.897 331.069 119.093C330.853 119.286 330.835 119.62 331.027 119.834L334.768 124.056V135.917L330.203 130.768C330.011 130.551 329.679 130.533 329.463 130.726C329.25 130.919 329.229 131.253 329.421 131.471L334.768 137.498V148.548L331.81 145.208C331.618 144.99 331.286 144.972 331.069 145.165C330.853 145.359 330.835 145.692 331.027 145.91L334.768 150.128V158.038C331.118 157.68 328.296 154.624 326.383 148.934C324.581 143.585 323.627 135.907 323.627 126.733C323.627 100.678 330.535 74.216 335.501 74.216C340.464 74.216 347.372 100.678 347.372 126.733Z" fill="white"/>
<path d="M322.579 126.733C322.579 103.34 328.845 73.1623 335.501 73.1623C342.154 73.1623 348.419 103.34 348.419 126.733C348.419 136.019 347.449 143.817 345.612 149.271C343.46 155.657 340.163 158.958 335.816 159.113V183.833C335.816 184.124 335.582 184.36 335.292 184.36C335.002 184.36 334.768 184.124 334.768 183.833V159.092C330.626 158.748 327.472 155.453 325.391 149.271C323.55 143.813 322.579 136.019 322.579 126.733ZM334.768 137.498L329.421 131.471C329.229 131.253 329.25 130.919 329.463 130.726C329.679 130.533 330.011 130.551 330.203 130.768L334.768 135.917V124.056L331.027 119.834C330.835 119.62 330.853 119.286 331.069 119.093C331.286 118.897 331.618 118.918 331.81 119.135L334.768 122.472V111.243C334.768 110.955 335.002 110.716 335.292 110.716C335.582 110.716 335.816 110.955 335.816 111.243V128.253L340.796 122.637C340.988 122.419 341.319 122.398 341.536 122.595C341.753 122.788 341.77 123.122 341.578 123.34L335.816 129.838V142.148L340.429 136.947C340.621 136.729 340.953 136.711 341.169 136.904C341.382 137.098 341.403 137.431 341.211 137.649L335.816 143.732V158.056C339.668 157.898 342.633 154.835 344.62 148.934C346.422 143.585 347.372 135.907 347.372 126.733C347.372 100.678 340.464 74.216 335.501 74.216C330.535 74.216 323.627 100.678 323.627 126.733C323.627 135.907 324.581 143.585 326.383 148.934C328.296 154.624 331.118 157.68 334.768 158.038V150.128L331.027 145.91C330.835 145.692 330.853 145.359 331.069 145.165C331.286 144.972 331.618 144.99 331.81 145.208L334.768 148.548V137.498Z" fill="#D1D1D1"/>
<path d="M389.598 100.446L404.454 173.004H392.263H389.598H386.937H374.745L389.598 100.446Z" fill="white"/>
<path d="M391.739 183.208V174.058H389.598H387.461V183.208H391.739ZM389.598 173.004H392.263H404.454L389.598 100.446L374.745 173.004H386.937H389.598ZM390.08 97.6293C390.094 97.6574 390.104 97.689 390.111 97.7206C390.111 97.7311 405.61 173.426 405.61 173.426C405.642 173.58 405.6 173.742 405.502 173.865C405.401 173.988 405.254 174.058 405.097 174.058H392.786V183.735C392.786 184.026 392.552 184.261 392.263 184.261H386.937C386.647 184.261 386.413 184.026 386.413 183.735V174.058H374.102C373.945 174.058 373.795 173.988 373.697 173.865C373.596 173.742 373.558 173.58 373.589 173.426L389.085 97.7311C389.095 97.689 389.106 97.6574 389.116 97.6293C389.123 97.6152 389.13 97.6012 389.137 97.5907C389.144 97.5731 389.154 97.5555 389.165 97.538C389.175 97.5239 389.186 97.5099 389.196 97.4993C389.207 97.4853 389.217 97.4712 389.228 97.4607C389.242 97.4466 389.256 97.4361 389.27 97.4256C389.284 97.415 389.294 97.4045 389.305 97.3975C389.326 97.3834 389.347 97.3729 389.367 97.3624C389.374 97.3588 389.385 97.3518 389.395 97.3483C389.455 97.3237 389.518 97.3097 389.587 97.3062C389.661 97.3062 389.738 97.3202 389.804 97.3483C389.811 97.3518 389.814 97.3553 389.821 97.3553C389.846 97.3694 389.87 97.3799 389.891 97.3975C389.902 97.4045 389.912 97.4115 389.923 97.4185C389.937 97.4326 389.954 97.4466 389.968 97.4607C389.979 97.4712 389.989 97.4818 389.996 97.4958C390.01 97.5099 390.024 97.5239 390.034 97.538C390.045 97.5555 390.052 97.5696 390.059 97.5871C390.066 97.6012 390.076 97.6152 390.08 97.6293Z" fill="#D1D1D1"/>
<path d="M375.653 166.419C378.028 168.122 378.139 172.077 375.904 175.235C374.804 176.787 373.313 177.908 371.707 178.399C370.292 178.828 368.948 178.712 367.865 178.083L371.452 173.57C371.633 173.342 371.598 173.008 371.371 172.829C371.144 172.646 370.816 172.685 370.634 172.91L367.034 177.44C366.381 176.784 365.941 175.891 365.77 174.859C368.144 173.377 369.786 170.268 369.8 166.672C371.857 165.397 374.078 165.291 375.653 166.419Z" fill="white"/>
<path d="M368.756 166.622C368.756 170.865 366.283 174.353 363.147 174.697V165.66C363.147 165.369 362.913 165.133 362.623 165.133C362.333 165.133 362.099 165.369 362.099 165.66V174.69C358.98 174.329 356.529 170.848 356.529 166.622C356.529 162.151 359.27 158.516 362.64 158.516C366.011 158.516 368.756 162.151 368.756 166.622Z" fill="white"/>
<path d="M359.378 174.768C359.211 175.846 358.792 176.759 358.163 177.447L353.522 171.673C353.34 171.448 353.012 171.413 352.785 171.596C352.561 171.779 352.526 172.109 352.708 172.337L357.363 178.129C357.307 178.164 357.255 178.206 357.199 178.241C355.998 178.937 354.507 178.979 352.998 178.361C351.444 177.718 350.064 176.457 349.118 174.81C348.172 173.159 347.777 171.329 348 169.657C348.22 168.031 349.003 166.756 350.204 166.057C351.716 165.179 353.672 165.351 355.481 166.503C355.481 166.542 355.481 166.58 355.481 166.622C355.481 170.166 357.067 173.247 359.378 174.768Z" fill="white"/>
<path d="M363.147 182.33L366.374 178.269C365.591 177.518 365.047 176.517 364.795 175.354C364.268 175.568 363.716 175.702 363.147 175.755V182.33ZM375.904 175.235C378.14 172.077 378.028 168.122 375.653 166.419C374.078 165.291 371.857 165.397 369.8 166.672C369.786 170.268 368.144 173.377 365.77 174.859C365.941 175.892 366.381 176.784 367.034 177.44L370.634 172.91C370.816 172.685 371.144 172.646 371.371 172.829C371.598 173.008 371.633 173.342 371.452 173.57L367.865 178.083C368.948 178.712 370.292 178.828 371.707 178.399C373.313 177.908 374.804 176.787 375.904 175.235ZM362.099 182.344V175.751C361.491 175.691 360.901 175.537 360.346 175.294C360.098 176.485 359.581 177.504 358.83 178.276L362.099 182.344ZM362.64 158.516C359.27 158.516 356.529 162.151 356.529 166.622C356.529 170.848 358.98 174.329 362.099 174.69V165.66C362.099 165.369 362.333 165.133 362.623 165.133C362.913 165.133 363.147 165.369 363.147 165.66V174.697C366.283 174.353 368.756 170.865 368.756 166.622C368.756 162.151 366.011 158.516 362.64 158.516ZM352.998 178.361C354.507 178.979 355.998 178.937 357.199 178.241C357.255 178.206 357.308 178.164 357.363 178.129L352.708 172.337C352.527 172.109 352.561 171.779 352.785 171.596C353.012 171.413 353.34 171.448 353.522 171.673L358.163 177.447C358.792 176.759 359.211 175.846 359.379 174.768C357.067 173.247 355.481 170.166 355.481 166.622C355.481 166.58 355.481 166.542 355.481 166.503C353.672 165.351 351.716 165.179 350.204 166.057C349.003 166.756 348.22 168.031 348 169.657C347.777 171.329 348.172 173.159 349.118 174.81C350.064 176.457 351.444 177.718 352.998 178.361ZM355.086 179.853C354.276 179.853 353.438 179.681 352.6 179.334C350.833 178.607 349.275 177.184 348.213 175.337C347.152 173.486 346.708 171.42 346.963 169.513C347.225 167.56 348.193 166.008 349.68 165.144C351.399 164.146 353.546 164.227 355.554 165.323C356.047 160.887 359.036 157.462 362.64 157.462C366.29 157.462 369.307 160.971 369.744 165.491C372.028 164.266 374.466 164.273 376.261 165.562C379.107 167.602 379.33 172.214 376.757 175.846C375.524 177.588 373.837 178.852 372.01 179.407C371.34 179.611 370.683 179.709 370.048 179.709C369.01 179.709 368.043 179.443 367.201 178.916L363.032 184.16C363.007 184.195 362.976 184.223 362.944 184.251C362.895 184.283 362.857 184.304 362.815 184.321C362.808 184.321 362.805 184.328 362.798 184.328C362.791 184.332 362.784 184.332 362.78 184.332C362.728 184.349 362.675 184.36 362.623 184.36C362.571 184.36 362.522 184.349 362.473 184.335C362.459 184.332 362.448 184.325 362.438 184.321C362.385 184.304 362.34 184.279 362.298 184.244C362.267 184.219 362.242 184.195 362.218 184.167C362.218 184.163 358.027 178.951 358.027 178.951C357.926 179.018 357.828 179.091 357.723 179.154C356.92 179.618 356.026 179.853 355.086 179.853Z" fill="#D1D1D1"/>
<path d="M554.308 170.567V173.187H549.398H546.841H493.873H491.316H487.412V170.567H491.316H493.873H546.841H549.398H554.308Z" fill="white"/>
<path d="M556.142 158.969V164.94H485.578V158.969H556.142ZM549.764 161.955C549.764 161.041 549.028 160.3 548.12 160.3C547.212 160.3 546.475 161.041 546.475 161.955C546.475 162.868 547.212 163.609 548.12 163.609C549.028 163.609 549.764 162.868 549.764 161.955ZM494.239 161.955C494.239 161.041 493.503 160.3 492.595 160.3C491.687 160.3 490.95 161.041 490.95 161.955C490.95 162.868 491.687 163.609 492.595 163.609C493.503 163.609 494.239 162.868 494.239 161.955Z" fill="white"/>
<path d="M556.142 148.253V154.224H485.578V148.253H556.142ZM549.764 151.238C549.764 150.325 549.028 149.584 548.12 149.584C547.212 149.584 546.475 150.325 546.475 151.238C546.475 152.152 547.212 152.893 548.12 152.893C549.028 152.893 549.764 152.152 549.764 151.238ZM494.239 151.238C494.239 150.325 493.503 149.584 492.595 149.584C491.687 149.584 490.95 150.325 490.95 151.238C490.95 152.152 491.687 152.893 492.595 152.893C493.503 152.893 494.239 152.152 494.239 151.238Z" fill="white"/>
<path d="M548.717 151.238C548.717 150.905 548.451 150.638 548.12 150.638C547.791 150.638 547.522 150.905 547.522 151.238C547.522 151.568 547.791 151.839 548.12 151.839C548.451 151.839 548.717 151.568 548.717 151.238ZM548.12 149.584C549.028 149.584 549.765 150.325 549.765 151.238C549.765 152.152 549.028 152.893 548.12 152.893C547.212 152.893 546.475 152.152 546.475 151.238C546.475 150.325 547.212 149.584 548.12 149.584Z" fill="#D1D1D1"/>
<path d="M548.717 161.954C548.717 161.621 548.451 161.354 548.12 161.354C547.791 161.354 547.522 161.621 547.522 161.954C547.522 162.285 547.791 162.555 548.12 162.555C548.451 162.555 548.717 162.285 548.717 161.954ZM548.12 160.3C549.028 160.3 549.765 161.041 549.765 161.954C549.765 162.868 549.028 163.609 548.12 163.609C547.212 163.609 546.475 162.868 546.475 161.954C546.475 161.041 547.212 160.3 548.12 160.3Z" fill="#D1D1D1"/>
<path d="M492.595 149.584C493.503 149.584 494.239 150.325 494.239 151.238C494.239 152.152 493.503 152.893 492.595 152.893C491.687 152.893 490.95 152.152 490.95 151.238C490.95 150.325 491.687 149.584 492.595 149.584ZM493.192 151.238C493.192 150.905 492.926 150.638 492.595 150.638C492.266 150.638 491.997 150.905 491.997 151.238C491.997 151.568 492.266 151.839 492.595 151.839C492.926 151.839 493.192 151.568 493.192 151.238Z" fill="#D1D1D1"/>
<path d="M492.595 162.555C492.926 162.555 493.192 162.285 493.192 161.954C493.192 161.621 492.926 161.354 492.595 161.354C492.266 161.354 491.997 161.621 491.997 161.954C491.997 162.285 492.266 162.555 492.595 162.555ZM492.595 160.3C493.503 160.3 494.239 161.041 494.239 161.954C494.239 162.868 493.503 163.609 492.595 163.609C491.687 163.609 490.95 162.868 490.95 161.954C490.95 161.041 491.687 160.3 492.595 160.3Z" fill="#D1D1D1"/>
<path d="M494.397 157.915H546.318V155.278H494.397V157.915ZM494.397 169.513H546.318V165.994H494.397V169.513ZM547.365 147.199H548.874V145.264H547.365V147.199ZM547.365 157.915H548.874V155.278H547.365V157.915ZM547.365 169.513H548.874V165.994H547.365V169.513ZM548.874 183.306V174.241H547.365V183.306H548.874ZM487.412 173.187H491.316H493.873H546.841H549.398H554.308V170.567H549.398H546.841H493.873H491.316H487.412V173.187ZM491.84 183.306H493.349V174.241H491.84V183.306ZM491.84 165.994V169.513H493.349V165.994H491.84ZM556.142 148.253H485.578V154.224H556.142V148.253ZM491.84 147.199H493.349V145.264H491.84V147.199ZM491.84 155.278V157.915H493.349V155.278H491.84ZM485.578 164.94H556.142V158.969H485.578V164.94ZM491.316 144.21H493.873C494.163 144.21 494.397 144.449 494.397 144.737V147.199H546.318V144.737C546.318 144.449 546.552 144.21 546.841 144.21H549.398C549.688 144.21 549.922 144.449 549.922 144.737V147.199H556.665C556.955 147.199 557.189 147.434 557.189 147.726V154.751C557.189 155.042 556.955 155.278 556.665 155.278H549.922V157.915H556.665C556.955 157.915 557.189 158.151 557.189 158.442V165.467C557.189 165.758 556.955 165.994 556.665 165.994H549.922V169.513H554.832C555.122 169.513 555.356 169.748 555.356 170.04V173.714C555.356 174.005 555.122 174.241 554.832 174.241H549.922V183.833C549.922 184.124 549.688 184.36 549.398 184.36H546.841C546.552 184.36 546.318 184.124 546.318 183.833V174.241H494.397V183.833C494.397 184.124 494.163 184.36 493.873 184.36H491.316C491.026 184.36 490.792 184.124 490.792 183.833V174.241H486.888C486.598 174.241 486.364 174.005 486.364 173.714V170.04C486.364 169.748 486.598 169.513 486.888 169.513H490.792V165.994H485.055C484.765 165.994 484.531 165.758 484.531 165.467V158.442C484.531 158.151 484.765 157.915 485.055 157.915H490.792V155.278H485.055C484.765 155.278 484.531 155.042 484.531 154.751V147.726C484.531 147.434 484.765 147.199 485.055 147.199H490.792V144.737C490.792 144.449 491.026 144.21 491.316 144.21Z" fill="#D1D1D1"/>
<path d="M600.358 167.645C601.067 168.533 601.458 169.647 601.458 170.792C601.458 173.556 599.22 175.807 596.468 175.807H585.851H582.132H578.423H567.795C565.044 175.807 562.805 173.556 562.805 170.792C562.805 169.647 563.196 168.533 563.905 167.645L573.544 156.897H582.132H590.723L600.358 167.645Z" fill="white"/>
<path d="M580.134 113.435C580.131 113.438 572.88 121.524 572.88 121.524C572.545 121.942 572.367 122.451 572.367 122.996C572.367 124.288 573.415 125.342 574.703 125.342H582.132C582.139 125.342 589.567 125.342 589.567 125.342C590.856 125.342 591.903 124.288 591.903 122.996C591.903 122.451 591.725 121.945 591.386 121.524L584.14 113.438C583.354 112.532 582.778 112.167 582.139 112.167C581.493 112.167 580.913 112.532 580.137 113.431C580.134 113.431 580.134 113.435 580.134 113.435ZM595.008 135.601C595.008 134.86 594.767 134.165 594.306 133.589L587.859 126.396H582.139C582.132 126.396 576.418 126.396 576.418 126.396L569.968 133.589C569.51 134.165 569.266 134.86 569.266 135.601C569.266 137.375 570.701 138.815 572.461 138.815H582.139H591.812C593.576 138.815 595.008 137.375 595.008 135.601ZM565.857 148.316L573.429 139.869H572.461C570.121 139.869 568.218 137.955 568.218 135.601C568.218 134.625 568.553 133.673 569.161 132.918C569.164 132.911 569.168 132.907 569.175 132.904C569.178 132.897 575.007 126.396 575.007 126.396H574.703C572.835 126.396 571.319 124.871 571.319 122.996C571.319 122.219 571.585 121.457 572.07 120.857C572.074 120.85 572.081 120.846 572.084 120.842C572.088 120.835 579.352 112.732 579.352 112.732C580.05 111.932 580.923 111.113 582.132 111.113C583.347 111.113 584.22 111.932 584.915 112.732C584.919 112.732 592.183 120.835 592.183 120.835C592.19 120.846 592.197 120.85 592.2 120.857C592.686 121.457 592.951 122.219 592.951 122.996C592.951 124.871 591.432 126.396 589.567 126.396H589.27L595.095 132.897C595.106 132.907 595.109 132.911 595.116 132.918C595.724 133.673 596.056 134.625 596.056 135.601C596.056 137.955 594.152 139.869 591.812 139.869H590.835L598.41 148.316C598.417 148.327 598.423 148.334 598.427 148.337C598.801 148.804 599.091 149.328 599.286 149.89L598.305 150.241C598.148 149.798 597.917 149.38 597.617 149.005L589.424 139.869H582.139H574.84L566.646 149.005C566.346 149.38 566.116 149.798 565.958 150.241L564.977 149.89C565.173 149.328 565.463 148.804 565.836 148.337C565.843 148.334 565.847 148.327 565.85 148.323C565.854 148.32 565.854 148.32 565.857 148.316Z" fill="#D1D1D1"/>
<path d="M578.947 183.282H585.327V176.861H582.132H578.947V183.282ZM562.805 170.792C562.805 173.556 565.044 175.807 567.796 175.807H578.423H582.132H585.851H596.468C599.22 175.807 601.458 173.556 601.458 170.792C601.458 169.647 601.067 168.533 600.358 167.645L590.723 156.897H582.132H573.544L563.905 167.645C563.196 168.533 562.805 169.647 562.805 170.792ZM592.134 156.897L601.148 166.953C601.158 166.967 601.162 166.97 601.165 166.974C602.031 168.048 602.506 169.404 602.506 170.792C602.506 174.139 599.799 176.861 596.468 176.861H586.375V183.808C586.375 184.1 586.141 184.335 585.851 184.335H578.423C578.133 184.335 577.899 184.1 577.899 183.808V176.861H567.796C564.464 176.861 561.757 174.139 561.757 170.792C561.757 169.404 562.232 168.048 563.098 166.974C563.102 166.97 563.105 166.967 563.112 166.96C563.116 166.953 572.13 156.897 572.13 156.897H569.905C567.02 156.897 564.677 154.54 564.677 151.642C564.677 151.042 564.782 150.448 564.977 149.89L565.959 150.241C565.805 150.687 565.725 151.158 565.725 151.642C565.725 153.957 567.6 155.843 569.905 155.843H582.132H594.358C596.663 155.843 598.539 153.957 598.539 151.642C598.539 151.158 598.458 150.687 598.305 150.241L599.286 149.89C599.482 150.448 599.586 151.042 599.586 151.642C599.586 154.54 597.243 156.897 594.358 156.897H592.134Z" fill="#D1D1D1"/>
<path d="M627.742 179.035C627.742 180.556 627.34 182.035 626.575 183.334L612.079 183.232C611.352 181.957 610.968 180.514 610.968 179.035C610.968 174.381 614.729 170.598 619.357 170.598C623.981 170.598 627.742 174.381 627.742 179.035Z" fill="white"/>
<path d="M610.968 179.035C610.968 180.514 611.352 181.957 612.079 183.232L626.575 183.334C627.34 182.035 627.742 180.556 627.742 179.035C627.742 174.381 623.981 170.598 619.357 170.598C614.729 170.598 610.968 174.381 610.968 179.035ZM626.862 184.388L611.775 184.283C611.597 184.283 611.429 184.188 611.335 184.033C610.409 182.537 609.92 180.809 609.92 179.035C609.92 173.802 614.153 169.545 619.357 169.545C624.557 169.545 628.79 173.802 628.79 179.035C628.79 180.855 628.276 182.621 627.305 184.146C627.211 184.297 627.043 184.388 626.865 184.388H626.862Z" fill="#D1D1D1"/>
<path d="M658.541 164.589C661.862 164.589 664.569 167.307 664.569 170.648C664.569 173.991 661.862 176.71 658.541 176.71C655.22 176.71 652.517 173.991 652.517 170.648C652.517 167.307 655.22 164.589 658.541 164.589Z" fill="white"/>
<path d="M649.171 157.856C652.866 157.856 656.086 160.174 657.298 163.651C653.987 164.245 651.469 167.153 651.469 170.648C651.469 172.06 651.881 173.37 652.587 174.476C651.507 174.947 650.362 175.189 649.171 175.189C647.802 175.189 646.45 174.855 645.242 174.23C645.602 173.426 645.808 172.537 645.808 171.599C645.808 168.477 643.583 165.871 640.646 165.295C641.243 161.041 644.872 157.856 649.171 157.856Z" fill="white"/>
<path d="M644.76 171.599C644.76 174.56 642.364 176.97 639.417 176.97C636.473 176.97 634.077 174.56 634.077 171.599C634.077 168.635 636.473 166.226 639.417 166.226C642.364 166.226 644.76 168.635 644.76 171.599Z" fill="white"/>
<path d="M658.541 164.589C655.22 164.589 652.517 167.307 652.517 170.648C652.517 173.991 655.22 176.71 658.541 176.71C661.862 176.71 664.569 173.991 664.569 170.648C664.569 167.307 661.862 164.589 658.541 164.589ZM649.695 178.308L653.816 175.93C653.613 175.744 653.418 175.547 653.236 175.34C652.115 175.863 650.928 176.162 649.695 176.225V178.308ZM648.647 180.363V179.973V179.218V176.225C647.282 176.151 645.948 175.783 644.736 175.154C644.449 175.586 644.111 175.976 643.73 176.327L648.647 180.363ZM634.077 171.599C634.077 174.56 636.473 176.97 639.417 176.97C642.364 176.97 644.76 174.56 644.76 171.599C644.76 168.635 642.364 166.226 639.417 166.226C636.473 166.226 634.077 168.635 634.077 171.599ZM649.695 179.973V183.735C649.695 184.026 649.461 184.262 649.171 184.262C648.881 184.262 648.647 184.026 648.647 183.735V181.708C648.623 181.694 648.602 181.687 648.581 181.669L642.881 176.991C641.882 177.641 640.695 178.024 639.417 178.024C635.893 178.024 633.029 175.143 633.029 171.599C633.029 168.056 635.893 165.172 639.417 165.172C639.48 165.172 639.539 165.179 639.598 165.182C640.255 160.392 644.338 156.802 649.171 156.802C653.4 156.802 657.081 159.506 658.37 163.542C658.426 163.542 658.482 163.535 658.541 163.535C662.442 163.535 665.617 166.728 665.617 170.648C665.617 174.571 662.442 177.764 658.541 177.764C657.13 177.764 655.82 177.342 654.717 176.626L649.695 179.523V179.973ZM649.171 175.189C650.362 175.189 651.507 174.947 652.587 174.476C651.881 173.37 651.469 172.06 651.469 170.648C651.469 167.153 653.987 164.245 657.298 163.651C656.086 160.174 652.866 157.856 649.171 157.856C644.872 157.856 641.243 161.041 640.646 165.295C643.583 165.871 645.808 168.477 645.808 171.599C645.808 172.537 645.602 173.426 645.242 174.23C646.45 174.855 647.802 175.189 649.171 175.189Z" fill="#D1D1D1"/>
</svg>
